<?xml version="1.0" standalone="no"?>
  <!DOCTYPE svg PUBLIC "-//W3C//DTD SVG 1.1//EN" "http://www.w3.org/Graphics/SVG/1.1/DTD/svg11.dtd" >
  <svg>
  <metadata>
  Created by font-carrier
  </metadata>
  <defs>
  <font id="Inter-Bold" horiz-adv-x="7552" vert-adv-y="7552" >
    <font-face
      
      font-family="Inter"
      
      font-weight="400"
      
      font-stretch="normal"
      
      units-per-em="2816"
      
      ascent="2728"
      
      descent="-680"
      
    />
      <missing-glyph />

      

      
      <glyph glyph-name="uni41" unicode="&#x41;" d="M531 0L683 467L1422 467L1574 0L2038 0L1332 2048L774 2048L67 0ZM793 805L1045 1580L1061 1580L1313 805Z"  horiz-adv-x="2106" vert-adv-y="2816"  />

      
      <glyph glyph-name="unic4" unicode="&#xc4;" d="M531 0L683 467L1422 467L1574 0L2038 0L1332 2048L774 2048L67 0ZM793 805L1045 1580L1061 1580L1313 805ZM748 2258C864 2258 956 2351 956 2462C956 2575 864 2665 748 2665C633 2665 538 2575 538 2462C538 2351 633 2258 748 2258ZM1360 2258C1476 2258 1568 2351 1568 2462C1568 2575 1476 2665 1360 2665C1245 2665 1150 2575 1150 2462C1150 2351 1245 2258 1360 2258Z"  horiz-adv-x="2106" vert-adv-y="2816"  />

      
      <glyph glyph-name="unic3" unicode="&#xc3;" d="M531 0L683 467L1422 467L1574 0L2038 0L1332 2048L774 2048L67 0ZM767 2250C767 2343 813 2402 882 2402C935 2402 975 2373 1019 2340C1075 2299 1139 2251 1251 2252C1432 2253 1574 2394 1576 2647L1343 2654C1342 2562 1301 2500 1224 2499C1174 2499 1132 2528 1086 2561C1026 2602 959 2650 855 2649C673 2648 530 2507 530 2253ZM793 805L1045 1580L1061 1580L1313 805Z"  horiz-adv-x="2106" vert-adv-y="2816"  />

      
      <glyph glyph-name="unic0" unicode="&#xc0;" d="M531 0L683 467L1422 467L1574 0L2038 0L1332 2048L774 2048L67 0ZM793 805L1045 1580L1061 1580L1313 805ZM905 2246L1206 2246L993 2701L600 2701Z"  horiz-adv-x="2106" vert-adv-y="2816"  />

      
      <glyph glyph-name="unic1" unicode="&#xc1;" d="M531 0L683 467L1422 467L1574 0L2038 0L1332 2048L774 2048L67 0ZM793 805L1045 1580L1061 1580L1313 805ZM900 2246L1201 2246L1506 2701L1112 2701Z"  horiz-adv-x="2106" vert-adv-y="2816"  />

      
      <glyph glyph-name="unic2" unicode="&#xc2;" d="M531 0L683 467L1422 467L1574 0L2038 0L1332 2048L774 2048L67 0ZM852 2230L1053 2474L1254 2230L1617 2230L1617 2244L1211 2684L894 2684L489 2244L489 2230ZM793 805L1045 1580L1061 1580L1313 805Z"  horiz-adv-x="2106" vert-adv-y="2816"  />

      
      <glyph glyph-name="unic5" unicode="&#xc5;" d="M531 0L683 467L1422 467L1574 0L2038 0L1332 2048L774 2048L67 0ZM1053 2158C1232 2158 1378 2296 1378 2467C1378 2638 1232 2777 1053 2777C873 2777 728 2638 728 2467C728 2296 873 2158 1053 2158ZM793 805L1045 1580L1061 1580L1313 805ZM1053 2331C974 2331 910 2392 910 2467C910 2542 975 2603 1053 2603C1132 2604 1195 2542 1195 2467C1195 2392 1131 2332 1053 2331Z"  horiz-adv-x="2106" vert-adv-y="2816"  />

      
      <glyph glyph-name="uni01FA" unicode="&#x01FA;" d="M531 0L683 467L1422 467L1574 0L2038 0L1332 2048L774 2048L67 0ZM793 805L1045 1580L1061 1580L1313 805ZM1052 2153C1194 2153 1305 2262 1305 2394C1305 2527 1194 2636 1052 2636C915 2636 800 2527 800 2394C800 2262 915 2153 1052 2153ZM907 2731L1168 2731L1554 3020L1179 3020ZM1052 2298C998 2298 954 2342 954 2394C954 2442 998 2486 1052 2486C1108 2486 1151 2442 1151 2394C1151 2342 1108 2298 1052 2298Z"  horiz-adv-x="2106" vert-adv-y="2816"  />

      
      <glyph glyph-name="uni0100" unicode="&#x0100;" d="M531 0L683 467L1422 467L1574 0L2038 0L1332 2048L774 2048L67 0ZM1540 2560L566 2560L566 2329L1540 2329ZM793 805L1045 1580L1061 1580L1313 805Z"  horiz-adv-x="2106" vert-adv-y="2816"  />

      
      <glyph glyph-name="uni0102" unicode="&#x0102;" d="M531 0L683 467L1422 467L1574 0L2038 0L1332 2048L774 2048L67 0ZM1251 2584C1251 2490 1195 2405 1053 2405C907 2405 853 2492 854 2584L559 2584C559 2342 750 2180 1053 2180C1356 2180 1547 2342 1548 2584ZM793 805L1045 1580L1061 1580L1313 805Z"  horiz-adv-x="2106" vert-adv-y="2816"  />

      
      <glyph glyph-name="uni0104" unicode="&#x0104;" d="M531 0L683 467L1422 467L1574 0L1577 0C1510-89 1488-204 1509-310C1540-479 1667-574 1844-574C1946-574 2023-542 2072-514L2028-294C2001-303 1968-318 1923-318C1859-318 1825-282 1826-218C1825-122 1913-59 2039 0L2038 0L1332 2048L774 2048L67 0ZM793 805L1045 1580L1061 1580L1313 805Z"  horiz-adv-x="2106" vert-adv-y="2816"  />

      
      <glyph glyph-name="uni01CD" unicode="&#x01CD;" d="M531 0L683 467L1422 467L1574 0L2038 0L1332 2048L774 2048L67 0ZM852 2686L489 2686L489 2672L894 2232L1211 2232L1617 2672L1617 2686L1254 2686L1053 2442ZM793 805L1045 1580L1061 1580L1313 805Z"  horiz-adv-x="2106" vert-adv-y="2816"  />

      
      <glyph glyph-name="uni01DE" unicode="&#x01DE;" d="M531 0L683 467L1422 467L1574 0L2038 0L1332 2048L774 2048L67 0ZM1540 3072L566 3072L566 2841L1540 2841ZM793 805L1045 1580L1061 1580L1313 805ZM749 2258C865 2258 957 2351 957 2462C957 2575 865 2665 749 2665C634 2665 539 2575 539 2462C539 2351 634 2258 749 2258ZM1361 2258C1477 2258 1569 2351 1569 2462C1569 2575 1477 2665 1361 2665C1246 2665 1151 2575 1151 2462C1151 2351 1246 2258 1361 2258Z"  horiz-adv-x="2106" vert-adv-y="2816"  />

      
      <glyph glyph-name="uni01E0" unicode="&#x01E0;" d="M531 0L683 467L1422 467L1574 0L2038 0L1332 2048L774 2048L67 0ZM1540 3072L566 3072L566 2841L1540 2841ZM793 805L1045 1580L1061 1580L1313 805ZM1054 2258C1171 2258 1267 2350 1267 2461C1267 2574 1171 2664 1054 2664C936 2664 840 2574 840 2461C840 2350 936 2258 1054 2258Z"  horiz-adv-x="2106" vert-adv-y="2816"  />

      
      <glyph glyph-name="uni0200" unicode="&#x0200;" d="M531 0L683 467L1422 467L1574 0L2038 0L1332 2048L774 2048L67 0ZM793 805L1045 1580L1061 1580L1313 805ZM887 2246L855 2515L474 2701L537 2432ZM1376 2246L1397 2515L1069 2701L1066 2432Z"  horiz-adv-x="2106" vert-adv-y="2816"  />

      
      <glyph glyph-name="uni0202" unicode="&#x0202;" d="M531 0L683 467L1422 467L1574 0L2038 0L1332 2048L774 2048L67 0ZM555 2295L852 2295C851 2387 905 2473 1050 2473C1192 2473 1248 2388 1249 2295L1546 2295C1545 2537 1353 2710 1050 2710C745 2710 554 2537 555 2295ZM793 805L1045 1580L1061 1580L1313 805Z"  horiz-adv-x="2106" vert-adv-y="2816"  />

      
      <glyph glyph-name="uni0226" unicode="&#x0226;" d="M531 0L683 467L1422 467L1574 0L2038 0L1332 2048L774 2048L67 0ZM793 805L1045 1580L1061 1580L1313 805ZM1052 2246C1179 2246 1283 2343 1283 2462C1283 2580 1179 2677 1052 2677C926 2677 822 2580 822 2462C822 2343 926 2246 1052 2246Z"  horiz-adv-x="2106" vert-adv-y="2816"  />

      
      <glyph glyph-name="uni1E00" unicode="&#x1E00;" d="M531 0L683 467L1422 467L1574 0L2038 0L1332 2048L774 2048L67 0ZM793 805L1045 1580L1061 1580L1313 805ZM785-312C785-450 900-549 1053-549C1198-549 1316-452 1316-312C1316-181 1198-78 1053-78C900-78 785-181 785-312ZM945-312C945-256 990-214 1053-214C1108-214 1154-256 1154-312C1154-373 1108-415 1053-415C990-415 945-373 945-312Z"  horiz-adv-x="2106" vert-adv-y="2816"  />

      
      <glyph glyph-name="uni1EA0" unicode="&#x1EA0;" d="M531 0L683 467L1422 467L1574 0L2038 0L1332 2048L774 2048L67 0ZM793 805L1045 1580L1061 1580L1313 805ZM1052-576C1179-576 1283-479 1283-360C1283-242 1179-145 1052-145C926-145 822-242 822-360C822-479 926-576 1052-576Z"  horiz-adv-x="2106" vert-adv-y="2816"  />

      
      <glyph glyph-name="uni1EA2" unicode="&#x1EA2;" d="M531 0L683 467L1422 467L1574 0L2038 0L1332 2048L774 2048L67 0ZM1210 2268L1210 2356C1317 2372 1424 2431 1423 2552C1424 2722 1234 2824 878 2824L867 2631C981 2631 1068 2611 1067 2539C1068 2487 1013 2454 872 2448L894 2268ZM793 805L1045 1580L1061 1580L1313 805Z"  horiz-adv-x="2106" vert-adv-y="2816"  />

      
      <glyph glyph-name="uni1EA4" unicode="&#x1EA4;" d="M531 0L683 467L1422 467L1574 0L2038 0L1332 2048L774 2048L67 0ZM793 805L1045 1580L1061 1580L1313 805ZM532 2216L838 2216L1052 2384L1263 2216L1570 2216L1165 2527L935 2527ZM1465 2392L1706 2392L2029 2767L1699 2767Z"  horiz-adv-x="2106" vert-adv-y="2816"  />

      
      <glyph glyph-name="uni1EA6" unicode="&#x1EA6;" d="M531 0L683 467L1422 467L1574 0L2038 0L1332 2048L774 2048L67 0ZM793 805L1045 1580L1061 1580L1313 805ZM1165 2521L936 2521L534 2210L839 2210L1052 2378L1264 2210L1571 2210ZM403 2760L76 2760L400 2386L638 2386Z"  horiz-adv-x="2106" vert-adv-y="2816"  />

      
      <glyph glyph-name="uni1EA8" unicode="&#x1EA8;" d="M531 0L683 467L1422 467L1574 0L2038 0L1332 2048L774 2048L67 0ZM793 805L1045 1580L1061 1580L1313 805ZM1172 2516L927 2516L533 2205L826 2205L1051 2380L1273 2205L1566 2205ZM1657 2380L1657 2452C1746 2466 1837 2517 1837 2617C1837 2761 1691 2844 1420 2844L1410 2683C1508 2683 1581 2666 1581 2605C1581 2559 1531 2536 1417 2530L1436 2380Z"  horiz-adv-x="2106" vert-adv-y="2816"  />

      
      <glyph glyph-name="uni1EAA" unicode="&#x1EAA;" d="M531 0L683 467L1422 467L1574 0L2038 0L1332 2048L774 2048L67 0ZM793 805L1045 1580L1061 1580L1313 805ZM1167 2508L939 2508L533 2201L831 2201L1051 2369L1276 2201L1570 2201ZM1271 2848C1270 2797 1241 2742 1200 2742C1103 2742 1002 2827 900 2827C784 2827 712 2717 712 2614L856 2574C856 2625 884 2669 929 2669C1029 2669 1102 2581 1229 2581C1344 2581 1418 2689 1419 2797Z"  horiz-adv-x="2106" vert-adv-y="2816"  />

      
      <glyph glyph-name="uni1EAC" unicode="&#x1EAC;" d="M531 0L683 467L1422 467L1574 0L2038 0L1332 2048L774 2048L67 0ZM852 2230L1053 2474L1254 2230L1617 2230L1617 2244L1211 2684L894 2684L489 2244L489 2230ZM793 805L1045 1580L1061 1580L1313 805ZM1052-576C1179-576 1283-479 1283-360C1283-242 1179-145 1052-145C926-145 822-242 822-360C822-479 926-576 1052-576Z"  horiz-adv-x="2106" vert-adv-y="2816"  />

      
      <glyph glyph-name="uni1EAE" unicode="&#x1EAE;" d="M531 0L683 467L1422 467L1574 0L2038 0L1332 2048L774 2048L67 0ZM793 805L1045 1580L1061 1580L1313 805ZM1269 2535C1269 2456 1208 2379 1047 2379C886 2379 824 2456 825 2535L553 2535C552 2341 743 2206 1047 2206C1352 2206 1546 2341 1546 2535ZM931 2533L1153 2533L1401 2789L1108 2789Z"  horiz-adv-x="2106" vert-adv-y="2816"  />

      
      <glyph glyph-name="uni1EB0" unicode="&#x1EB0;" d="M531 0L683 467L1422 467L1574 0L2038 0L1332 2048L774 2048L67 0ZM793 805L1045 1580L1061 1580L1313 805ZM1269 2537C1269 2458 1206 2381 1047 2381C886 2381 824 2458 825 2537L553 2537C552 2348 743 2211 1047 2211C1354 2211 1546 2348 1546 2537ZM958 2533L1176 2533L1001 2789L708 2789Z"  horiz-adv-x="2106" vert-adv-y="2816"  />

      
      <glyph glyph-name="uni1EB2" unicode="&#x1EB2;" d="M531 0L683 467L1422 467L1574 0L2038 0L1332 2048L774 2048L67 0ZM1266 2520C1267 2441 1203 2374 1042 2374C883 2374 819 2438 818 2520L544 2520C545 2326 735 2196 1042 2196C1350 2196 1543 2326 1542 2520ZM793 805L1045 1580L1061 1580L1313 805ZM1166 2565L1166 2634C1272 2646 1377 2688 1376 2785C1377 2918 1210 2995 888 2995L876 2846C990 2846 1075 2833 1074 2772C1075 2732 1016 2711 881 2707L906 2565Z"  horiz-adv-x="2106" vert-adv-y="2816"  />

      
      <glyph glyph-name="uni1EB4" unicode="&#x1EB4;" d="M531 0L683 467L1422 467L1574 0L2038 0L1332 2048L774 2048L67 0ZM1264 2525C1263 2443 1199 2379 1043 2379C881 2379 822 2446 822 2525L549 2525C549 2329 742 2195 1043 2195C1346 2195 1538 2329 1539 2525ZM793 805L1045 1580L1061 1580L1313 805ZM1282 2953C1282 2885 1237 2833 1189 2833C1068 2833 976 2923 857 2923C720 2923 624 2804 625 2672L797 2625C796 2693 842 2743 893 2743C1012 2743 1074 2652 1225 2652C1358 2652 1457 2769 1457 2900Z"  horiz-adv-x="2106" vert-adv-y="2816"  />

      
      <glyph glyph-name="uni1EB6" unicode="&#x1EB6;" d="M531 0L683 467L1422 467L1574 0L2038 0L1332 2048L774 2048L67 0ZM1251 2584C1251 2490 1195 2405 1053 2405C907 2405 853 2492 854 2584L559 2584C559 2342 750 2180 1053 2180C1356 2180 1547 2342 1548 2584ZM793 805L1045 1580L1061 1580L1313 805ZM1052-576C1179-576 1283-479 1283-360C1283-242 1179-145 1052-145C926-145 822-242 822-360C822-479 926-576 1052-576Z"  horiz-adv-x="2106" vert-adv-y="2816"  />

      
      <glyph glyph-name="uni0391" unicode="&#x0391;" d="M531 0L683 467L1422 467L1574 0L2038 0L1332 2048L774 2048L67 0ZM793 805L1045 1580L1061 1580L1313 805Z"  horiz-adv-x="2106" vert-adv-y="2816"  />

      
      <glyph glyph-name="uni0386" unicode="&#x0386;" d="M531 0L683 467L1422 467L1574 0L2038 0L1332 2048L774 2048L67 0ZM793 805L1045 1580L1061 1580L1313 805ZM180 1720L431 1720L668 2195L287 2195Z"  horiz-adv-x="2106" vert-adv-y="2816"  />

      
      <glyph glyph-name="uni1F08" unicode="&#x1F08;" d="M531 0L683 467L1422 467L1574 0L2038 0L1332 2048L774 2048L67 0ZM793 805L1045 1580L1061 1580L1313 805ZM552 2048L311 2048L311 1925C311 1817 284 1734 201 1677L319 1552C454 1616 552 1745 552 1917Z"  horiz-adv-x="2106" vert-adv-y="2816"  />

      
      <glyph glyph-name="uni1F09" unicode="&#x1F09;" d="M531 0L683 467L1422 467L1574 0L2038 0L1332 2048L774 2048L67 0ZM793 805L1045 1580L1061 1580L1313 805ZM248 1917C250 1745 349 1616 481 1552L599 1677C514 1737 493 1829 492 1925L492 2048L248 2048Z"  horiz-adv-x="2106" vert-adv-y="2816"  />

      
      <glyph glyph-name="uni1F0A" unicode="&#x1F0A;" d="M531 0L683 467L1422 467L1574 0L2038 0L1332 2048L774 2048L67 0ZM793 805L1045 1580L1061 1580L1313 805ZM79 2048L-178 2048L-178 1944C-178 1814-218 1720-293 1636L-182 1552C-17 1640 80 1776 79 1936ZM602 1604L441 2048L143 2048L143 2020L469 1584L602 1584Z"  horiz-adv-x="2106" vert-adv-y="2816"  />

      
      <glyph glyph-name="uni1F0B" unicode="&#x1F0B;" d="M531 0L683 467L1422 467L1574 0L2038 0L1332 2048L774 2048L67 0ZM793 805L1045 1580L1061 1580L1313 805ZM-215 1917C-217 1745-117 1616 22 1552L140 1677C48 1737 29 1829 30 1925L30 2048L-215 2048ZM600 1614L443 2048L141 2048L141 2020L467 1582L600 1582Z"  horiz-adv-x="2106" vert-adv-y="2816"  />

      
      <glyph glyph-name="uni1F0C" unicode="&#x1F0C;" d="M531 0L683 467L1422 467L1574 0L2038 0L1332 2048L774 2048L67 0ZM793 805L1045 1580L1061 1580L1313 805ZM122 2048L-124 2048L-124 1925C-125 1829-146 1737-233 1677L-116 1552C22 1616 121 1747 122 1917ZM164 1582L296 1582L622 2020L622 2048L324 2048L164 1614Z"  horiz-adv-x="2106" vert-adv-y="2816"  />

      
      <glyph glyph-name="uni1F0D" unicode="&#x1F0D;" d="M531 0L683 467L1422 467L1574 0L2038 0L1332 2048L774 2048L67 0ZM793 805L1045 1580L1061 1580L1313 805ZM-41 1552L76 1677C-5 1734-30 1817-31 1925L-31 2048L-274 2048L-274 1917C-274 1740-170 1614-41 1552ZM155 1582L283 1582L611 2020L611 2048L309 2048L155 1614Z"  horiz-adv-x="2106" vert-adv-y="2816"  />

      
      <glyph glyph-name="uni1F0E" unicode="&#x1F0E;" d="M531 0L683 467L1422 467L1574 0L2038 0L1332 2048L774 2048L67 0ZM793 805L1045 1580L1061 1580L1313 805ZM606 2389C606 2323 564 2271 511 2271C395 2271 302 2363 181 2363C45 2363-50 2242-50 2110L123 2061C123 2126 161 2181 217 2181C339 2181 399 2088 547 2088C683 2088 779 2204 779 2336ZM501 2018L276 2018L276 1913C276 1838 261 1757 181 1710L294 1608C413 1662 501 1770 501 1907Z"  horiz-adv-x="2106" vert-adv-y="2816"  />

      
      <glyph glyph-name="uni1F0F" unicode="&#x1F0F;" d="M531 0L683 467L1422 467L1574 0L2038 0L1332 2048L774 2048L67 0ZM793 805L1045 1580L1061 1580L1313 805ZM568 2389C568 2323 526 2271 473 2271C357 2271 264 2363 143 2363C7 2363-88 2242-88 2110L85 2061C85 2126 123 2181 179 2181C301 2181 361 2088 509 2088C645 2088 741 2204 741 2336ZM235 1907C235 1765 328 1659 438 1608L555 1710C475 1757 460 1838 460 1913L460 2018L235 2018Z"  horiz-adv-x="2106" vert-adv-y="2816"  />

      
      <glyph glyph-name="uni1FB8" unicode="&#x1FB8;" d="M531 0L683 467L1422 467L1574 0L2038 0L1332 2048L774 2048L67 0ZM1251 2584C1251 2490 1195 2405 1053 2405C907 2405 853 2492 854 2584L559 2584C559 2342 750 2180 1053 2180C1356 2180 1547 2342 1548 2584ZM793 805L1045 1580L1061 1580L1313 805Z"  horiz-adv-x="2106" vert-adv-y="2816"  />

      
      <glyph glyph-name="uni1FB9" unicode="&#x1FB9;" d="M531 0L683 467L1422 467L1574 0L2038 0L1332 2048L774 2048L67 0ZM1540 2560L566 2560L566 2329L1540 2329ZM793 805L1045 1580L1061 1580L1313 805Z"  horiz-adv-x="2106" vert-adv-y="2816"  />

      
      <glyph glyph-name="uni1FBA" unicode="&#x1FBA;" d="M531 0L683 467L1422 467L1574 0L2038 0L1332 2048L774 2048L67 0ZM793 805L1045 1580L1061 1580L1313 805ZM461 1580L589 1580L589 1618L433 2048L135 2048L135 2020Z"  horiz-adv-x="2106" vert-adv-y="2816"  />

      
      <glyph glyph-name="uni023A" unicode="&#x023A;" d="M1718 2308L1457 2308L1353 1987L1332 2048L774 2048L67 0L531 0L683 467L861 467L626-260L888-260L1123 467L1422 467L1574 0L2038 0L1488 1596ZM971 805L793 805L1045 1580L1061 1580L1141 1333ZM1272 929L1313 805L1232 805Z"  horiz-adv-x="2106" vert-adv-y="2816"  />

      
      <glyph glyph-name="uni1FBB" unicode="&#x1FBB;" d="M531 0L683 467L1422 467L1574 0L2038 0L1332 2048L774 2048L67 0ZM793 805L1045 1580L1061 1580L1313 805ZM189 1728L401 1728L726 2168L726 2196L345 2196L189 1766Z"  horiz-adv-x="2106" vert-adv-y="2816"  />

      
      <glyph glyph-name="uni0410" unicode="&#x0410;" d="M531 0L683 467L1422 467L1574 0L2038 0L1332 2048L774 2048L67 0ZM793 805L1045 1580L1061 1580L1313 805Z"  horiz-adv-x="2106" vert-adv-y="2816"  />

      
      <glyph glyph-name="uni04D0" unicode="&#x04D0;" d="M531 0L683 467L1422 467L1574 0L2038 0L1332 2048L774 2048L67 0ZM1251 2584C1251 2490 1195 2405 1053 2405C907 2405 853 2492 854 2584L559 2584C559 2342 750 2180 1053 2180C1356 2180 1547 2342 1548 2584ZM793 805L1045 1580L1061 1580L1313 805Z"  horiz-adv-x="2106" vert-adv-y="2816"  />

      
      <glyph glyph-name="uni04D2" unicode="&#x04D2;" d="M531 0L683 467L1422 467L1574 0L2038 0L1332 2048L774 2048L67 0ZM793 805L1045 1580L1061 1580L1313 805ZM748 2258C864 2258 956 2351 956 2462C956 2575 864 2665 748 2665C633 2665 538 2575 538 2462C538 2351 633 2258 748 2258ZM1360 2258C1476 2258 1568 2351 1568 2462C1568 2575 1476 2665 1360 2665C1245 2665 1150 2575 1150 2462C1150 2351 1245 2258 1360 2258Z"  horiz-adv-x="2106" vert-adv-y="2816"  />

      
      <glyph glyph-name="uni1F88" unicode="&#x1F88;" d="M531 0L683 467L1422 467L1574 0L2038 0L1332 2048L774 2048L67 0ZM793 805L1045 1580L1061 1580L1313 805ZM1190-680C1245-680 1284-672 1321-662L1321-498C1307-498 1286-502 1258-502C1202-502 1183-476 1183-420L1183-132L929-132L929-422C929-604 1045-680 1190-680ZM552 2048L311 2048L311 1925C311 1817 284 1734 201 1677L319 1552C454 1616 552 1745 552 1917Z"  horiz-adv-x="2106" vert-adv-y="2816"  />

      
      <glyph glyph-name="uni1F89" unicode="&#x1F89;" d="M531 0L683 467L1422 467L1574 0L2038 0L1332 2048L774 2048L67 0ZM793 805L1045 1580L1061 1580L1313 805ZM1190-680C1245-680 1284-672 1321-662L1321-498C1307-498 1286-502 1258-502C1202-502 1183-476 1183-420L1183-132L929-132L929-422C929-604 1045-680 1190-680ZM248 1917C250 1745 349 1616 481 1552L599 1677C514 1737 493 1829 492 1925L492 2048L248 2048Z"  horiz-adv-x="2106" vert-adv-y="2816"  />

      
      <glyph glyph-name="uni1F8A" unicode="&#x1F8A;" d="M531 0L683 467L1422 467L1574 0L2038 0L1332 2048L774 2048L67 0ZM793 805L1045 1580L1061 1580L1313 805ZM1190-680C1245-680 1284-672 1321-662L1321-498C1307-498 1286-502 1258-502C1202-502 1183-476 1183-420L1183-132L929-132L929-422C929-604 1045-680 1190-680ZM79 2048L-178 2048L-178 1944C-178 1814-218 1720-293 1636L-182 1552C-17 1640 80 1776 79 1936ZM602 1604L441 2048L143 2048L143 2020L469 1584L602 1584Z"  horiz-adv-x="2106" vert-adv-y="2816"  />

      
      <glyph glyph-name="uni1F8B" unicode="&#x1F8B;" d="M531 0L683 467L1422 467L1574 0L2038 0L1332 2048L774 2048L67 0ZM793 805L1045 1580L1061 1580L1313 805ZM1190-680C1245-680 1284-672 1321-662L1321-498C1307-498 1286-502 1258-502C1202-502 1183-476 1183-420L1183-132L929-132L929-422C929-604 1045-680 1190-680ZM-215 1917C-217 1745-117 1616 22 1552L140 1677C48 1737 29 1829 30 1925L30 2048L-215 2048ZM600 1614L443 2048L141 2048L141 2020L467 1582L600 1582Z"  horiz-adv-x="2106" vert-adv-y="2816"  />

      
      <glyph glyph-name="uni1F8C" unicode="&#x1F8C;" d="M531 0L683 467L1422 467L1574 0L2038 0L1332 2048L774 2048L67 0ZM793 805L1045 1580L1061 1580L1313 805ZM1190-680C1245-680 1284-672 1321-662L1321-498C1307-498 1286-502 1258-502C1202-502 1183-476 1183-420L1183-132L929-132L929-422C929-604 1045-680 1190-680ZM122 2048L-124 2048L-124 1925C-125 1829-146 1737-233 1677L-116 1552C22 1616 121 1747 122 1917ZM164 1582L296 1582L622 2020L622 2048L324 2048L164 1614Z"  horiz-adv-x="2106" vert-adv-y="2816"  />

      
      <glyph glyph-name="uni1F8D" unicode="&#x1F8D;" d="M531 0L683 467L1422 467L1574 0L2038 0L1332 2048L774 2048L67 0ZM793 805L1045 1580L1061 1580L1313 805ZM1190-680C1245-680 1284-672 1321-662L1321-498C1307-498 1286-502 1258-502C1202-502 1183-476 1183-420L1183-132L929-132L929-422C929-604 1045-680 1190-680ZM-41 1552L76 1677C-5 1734-30 1817-31 1925L-31 2048L-274 2048L-274 1917C-274 1740-170 1614-41 1552ZM155 1582L283 1582L611 2020L611 2048L309 2048L155 1614Z"  horiz-adv-x="2106" vert-adv-y="2816"  />

      
      <glyph glyph-name="uni1F8E" unicode="&#x1F8E;" d="M531 0L683 467L1422 467L1574 0L2038 0L1332 2048L774 2048L67 0ZM793 805L1045 1580L1061 1580L1313 805ZM606 2389C606 2323 564 2271 511 2271C395 2271 302 2363 181 2363C45 2363-50 2242-50 2110L123 2061C123 2126 161 2181 217 2181C339 2181 399 2088 547 2088C683 2088 779 2204 779 2336ZM1190-680C1245-680 1284-672 1321-662L1321-498C1307-498 1286-502 1258-502C1202-502 1183-476 1183-420L1183-132L929-132L929-422C929-604 1045-680 1190-680ZM501 2018L276 2018L276 1913C276 1838 261 1757 181 1710L294 1608C413 1662 501 1770 501 1907Z"  horiz-adv-x="2106" vert-adv-y="2816"  />

      
      <glyph glyph-name="uni1F8F" unicode="&#x1F8F;" d="M531 0L683 467L1422 467L1574 0L2038 0L1332 2048L774 2048L67 0ZM793 805L1045 1580L1061 1580L1313 805ZM568 2389C568 2323 526 2271 473 2271C357 2271 264 2363 143 2363C7 2363-88 2242-88 2110L85 2061C85 2126 123 2181 179 2181C301 2181 361 2088 509 2088C645 2088 741 2204 741 2336ZM1190-680C1245-680 1284-672 1321-662L1321-498C1307-498 1286-502 1258-502C1202-502 1183-476 1183-420L1183-132L929-132L929-422C929-604 1045-680 1190-680ZM235 1907C235 1765 328 1659 438 1608L555 1710C475 1757 460 1838 460 1913L460 2018L235 2018Z"  horiz-adv-x="2106" vert-adv-y="2816"  />

      
      <glyph glyph-name="uni1FBC" unicode="&#x1FBC;" d="M531 0L683 467L1422 467L1574 0L2038 0L1332 2048L774 2048L67 0ZM793 805L1045 1580L1061 1580L1313 805ZM1190-680C1245-680 1284-672 1321-662L1321-498C1307-498 1286-502 1258-502C1202-502 1183-476 1183-420L1183-132L929-132L929-422C929-604 1045-680 1190-680Z"  horiz-adv-x="2106" vert-adv-y="2816"  />

      
      <glyph glyph-name="uni039B" unicode="&#x039B;" d="M531 0L1045 1580L1061 1580L1574 0L2038 0L1332 2048L774 2048L67 0Z"  horiz-adv-x="2106" vert-adv-y="2816"  />

      
      <glyph glyph-name="unic6" unicode="&#xc6;" d="M67 0L543 0L735 467L1354 467L1354 0L2738 0L2738 357L1787 357L1787 846L2663 846L2663 1203L1787 1203L1787 1691L2734 1691L2734 2048L944 2048ZM875 805L1211 1622L1354 1622L1354 805Z"  horiz-adv-x="2901" vert-adv-y="2816"  />

      
      <glyph glyph-name="uni01E2" unicode="&#x01E2;" d="M67 0L543 0L735 467L1354 467L1354 0L2738 0L2738 357L1787 357L1787 846L2663 846L2663 1203L1787 1203L1787 1691L2734 1691L2734 2048L944 2048ZM875 805L1211 1622L1354 1622L1354 805ZM2331 2560L1357 2560L1357 2329L2331 2329Z"  horiz-adv-x="2901" vert-adv-y="2816"  />

      
      <glyph glyph-name="uni01FC" unicode="&#x01FC;" d="M67 0L543 0L735 467L1354 467L1354 0L2738 0L2738 357L1787 357L1787 846L2663 846L2663 1203L1787 1203L1787 1691L2734 1691L2734 2048L944 2048ZM875 805L1211 1622L1354 1622L1354 805ZM1691 2246L1992 2246L2297 2701L1903 2701Z"  horiz-adv-x="2901" vert-adv-y="2816"  />

      
      <glyph glyph-name="uni04D4" unicode="&#x04D4;" d="M67 0L543 0L735 467L1354 467L1354 0L2738 0L2738 357L1787 357L1787 846L2663 846L2663 1203L1787 1203L1787 1691L2734 1691L2734 2048L944 2048ZM875 805L1211 1622L1354 1622L1354 805Z"  horiz-adv-x="2901" vert-adv-y="2816"  />

      
      <glyph glyph-name="uni42" unicode="&#x42;" d="M178 0L1053 0C1513 0 1758 240 1758 566C1758 869 1541 1052 1308 1063L1308 1083C1521 1131 1678 1282 1678 1523C1678 1830 1450 2048 998 2048L178 2048ZM611 354L611 898L974 898C1182 898 1311 778 1311 609C1311 455 1206 354 964 354ZM611 1191L611 1698L940 1698C1132 1698 1241 1599 1241 1451C1241 1289 1109 1191 932 1191Z"  horiz-adv-x="1861" vert-adv-y="2816"  />

      
      <glyph glyph-name="uni1E02" unicode="&#x1E02;" d="M178 0L1053 0C1513 0 1758 240 1758 566C1758 869 1541 1052 1308 1063L1308 1083C1521 1131 1678 1282 1678 1523C1678 1830 1450 2048 998 2048L178 2048ZM611 354L611 898L974 898C1182 898 1311 778 1311 609C1311 455 1206 354 964 354ZM611 1191L611 1698L940 1698C1132 1698 1241 1599 1241 1451C1241 1289 1109 1191 932 1191ZM900 2246C1027 2246 1131 2343 1131 2462C1131 2580 1027 2677 900 2677C774 2677 670 2580 670 2462C670 2343 774 2246 900 2246Z"  horiz-adv-x="1861" vert-adv-y="2816"  />

      
      <glyph glyph-name="uni1E04" unicode="&#x1E04;" d="M178 0L1053 0C1513 0 1758 240 1758 566C1758 869 1541 1052 1308 1063L1308 1083C1521 1131 1678 1282 1678 1523C1678 1830 1450 2048 998 2048L178 2048ZM611 354L611 898L974 898C1182 898 1311 778 1311 609C1311 455 1206 354 964 354ZM611 1191L611 1698L940 1698C1132 1698 1241 1599 1241 1451C1241 1289 1109 1191 932 1191ZM902-576C1029-576 1133-479 1133-360C1133-242 1029-145 902-145C776-145 672-242 672-360C672-479 776-576 902-576Z"  horiz-adv-x="1861" vert-adv-y="2816"  />

      
      <glyph glyph-name="uni1E06" unicode="&#x1E06;" d="M178 0L1053 0C1513 0 1758 240 1758 566C1758 869 1541 1052 1308 1063L1308 1083C1521 1131 1678 1282 1678 1523C1678 1830 1450 2048 998 2048L178 2048ZM611 354L611 898L974 898C1182 898 1311 778 1311 609C1311 455 1206 354 964 354ZM611 1191L611 1698L940 1698C1132 1698 1241 1599 1241 1451C1241 1289 1109 1191 932 1191ZM1390-256L416-256L416-487L1390-487Z"  horiz-adv-x="1861" vert-adv-y="2816"  />

      
      <glyph glyph-name="uni0243" unicode="&#x0243;" d="M356 0L1231 0C1691 0 1936 240 1936 566C1936 869 1719 1052 1486 1063L1486 1083C1699 1131 1856 1282 1856 1523C1856 1830 1628 2048 1176 2048L356 2048L356 752L61 752L61 501L356 501ZM789 1191L789 1698L1118 1698C1310 1698 1419 1599 1419 1451C1419 1289 1287 1191 1110 1191ZM789 354L789 501L1059 501L1059 752L789 752L789 898L1152 898C1360 898 1489 778 1489 609C1489 455 1384 354 1142 354Z"  horiz-adv-x="2038" vert-adv-y="2816"  />

      
      <glyph glyph-name="uni0181" unicode="&#x0181;" d="M757 0L1632 0C2092 0 2337 240 2337 566C2337 869 2120 1052 1887 1063L1887 1083C2100 1131 2257 1282 2257 1523C2257 1830 2029 2048 1577 2048L686 2048C322 2048 99 1842 100 1520L100 1319L486 1319L486 1438C484 1562 521 1694 687 1694L757 1694ZM1190 354L1190 898L1553 898C1761 898 1890 778 1890 609C1890 455 1785 354 1543 354ZM1190 1191L1190 1698L1519 1698C1711 1698 1820 1599 1820 1451C1820 1289 1688 1191 1511 1191Z"  horiz-adv-x="2440" vert-adv-y="2816"  />

      
      <glyph glyph-name="uni0412" unicode="&#x0412;" d="M178 0L1053 0C1513 0 1758 240 1758 566C1758 869 1541 1052 1308 1063L1308 1083C1521 1131 1678 1282 1678 1523C1678 1830 1450 2048 998 2048L178 2048ZM611 354L611 898L974 898C1182 898 1311 778 1311 609C1311 455 1206 354 964 354ZM611 1191L611 1698L940 1698C1132 1698 1241 1599 1241 1451C1241 1289 1109 1191 932 1191Z"  horiz-adv-x="1861" vert-adv-y="2816"  />

      
      <glyph glyph-name="uni0392" unicode="&#x0392;" d="M178 0L1053 0C1513 0 1758 240 1758 566C1758 869 1541 1052 1308 1063L1308 1083C1521 1131 1678 1282 1678 1523C1678 1830 1450 2048 998 2048L178 2048ZM611 354L611 898L974 898C1182 898 1311 778 1311 609C1311 455 1206 354 964 354ZM611 1191L611 1698L940 1698C1132 1698 1241 1599 1241 1451C1241 1289 1109 1191 932 1191Z"  horiz-adv-x="1861" vert-adv-y="2816"  />

      
      <glyph glyph-name="uni43" unicode="&#x43;" d="M1985 1331C1928 1804 1570 2076 1096 2076C555 2076 142 1694 142 1024C142 356 548-28 1096-28C1621-28 1938 321 1985 698L1547 700C1506 481 1334 355 1103 355C792 355 581 586 581 1024C581 1450 789 1693 1106 1693C1343 1693 1514 1556 1547 1331Z"  horiz-adv-x="2118" vert-adv-y="2816"  />

      
      <glyph glyph-name="uni0187" unicode="&#x0187;" d="M1985 1331L1985 1503C1985 1697 2134 1759 2262 1759C2294 1759 2351 1755 2383 1754L2383 2098C2311 2110 2250 2110 2180 2110C1978 2110 1792 2036 1680 1895C1526 2013 1324 2076 1096 2076C555 2076 142 1694 142 1024C142 356 548-28 1096-28C1621-28 1938 321 1985 698L1547 700C1506 481 1334 355 1103 355C792 355 581 586 581 1024C581 1450 789 1693 1106 1693C1343 1693 1514 1556 1547 1331Z"  horiz-adv-x="2359" vert-adv-y="2816"  />

      
      <glyph glyph-name="unic7" unicode="&#xc7;" d="M1985 1331C1928 1804 1570 2076 1096 2076C555 2076 142 1694 142 1024C142 403 493 27 983-22L944-197C1083-214 1147-253 1144-335C1141-420 1040-460 872-460L876-650C1211-650 1405-523 1404-324C1403-184 1306-102 1169-81L1179-25C1654 10 1941 341 1985 698L1547 700C1506 481 1334 355 1103 355C792 355 581 586 581 1024C581 1450 789 1693 1106 1693C1343 1693 1514 1556 1547 1331Z"  horiz-adv-x="2118" vert-adv-y="2816"  />

      
      <glyph glyph-name="uni0106" unicode="&#x0106;" d="M1985 1331C1928 1804 1570 2076 1096 2076C555 2076 142 1694 142 1024C142 356 548-28 1096-28C1621-28 1938 321 1985 698L1547 700C1506 481 1334 355 1103 355C792 355 581 586 581 1024C581 1450 789 1693 1106 1693C1343 1693 1514 1556 1547 1331ZM943 2246L1244 2246L1549 2701L1155 2701Z"  horiz-adv-x="2118" vert-adv-y="2816"  />

      
      <glyph glyph-name="uni0108" unicode="&#x0108;" d="M1985 1331C1928 1804 1570 2076 1096 2076C555 2076 142 1694 142 1024C142 356 548-28 1096-28C1621-28 1938 321 1985 698L1547 700C1506 481 1334 355 1103 355C792 355 581 586 581 1024C581 1450 789 1693 1106 1693C1343 1693 1514 1556 1547 1331ZM895 2230L1096 2474L1297 2230L1660 2230L1660 2244L1254 2684L937 2684L532 2244L532 2230Z"  horiz-adv-x="2118" vert-adv-y="2816"  />

      
      <glyph glyph-name="uni010A" unicode="&#x010A;" d="M1985 1331C1928 1804 1570 2076 1096 2076C555 2076 142 1694 142 1024C142 356 548-28 1096-28C1621-28 1938 321 1985 698L1547 700C1506 481 1334 355 1103 355C792 355 581 586 581 1024C581 1450 789 1693 1106 1693C1343 1693 1514 1556 1547 1331ZM1096 2246C1223 2246 1327 2343 1327 2462C1327 2580 1223 2677 1096 2677C970 2677 866 2580 866 2462C866 2343 970 2246 1096 2246Z"  horiz-adv-x="2118" vert-adv-y="2816"  />

      
      <glyph glyph-name="uni010C" unicode="&#x010C;" d="M1985 1331C1928 1804 1570 2076 1096 2076C555 2076 142 1694 142 1024C142 356 548-28 1096-28C1621-28 1938 321 1985 698L1547 700C1506 481 1334 355 1103 355C792 355 581 586 581 1024C581 1450 789 1693 1106 1693C1343 1693 1514 1556 1547 1331ZM895 2686L532 2686L532 2672L937 2232L1254 2232L1660 2672L1660 2686L1297 2686L1096 2442Z"  horiz-adv-x="2118" vert-adv-y="2816"  />

      
      <glyph glyph-name="uni1E08" unicode="&#x1E08;" d="M1985 1331C1928 1804 1570 2076 1096 2076C555 2076 142 1694 142 1024C142 403 493 27 983-22L944-197C1083-214 1147-253 1144-335C1141-420 1040-460 872-460L876-650C1211-650 1405-523 1404-324C1403-184 1306-102 1169-81L1179-25C1654 10 1941 341 1985 698L1547 700C1506 481 1334 355 1103 355C792 355 581 586 581 1024C581 1450 789 1693 1106 1693C1343 1693 1514 1556 1547 1331ZM943 2246L1244 2246L1549 2701L1155 2701Z"  horiz-adv-x="2118" vert-adv-y="2816"  />

      
      <glyph glyph-name="uni023B" unicode="&#x023B;" d="M519-260L781-260L864-3C938-20 1015-28 1096-28C1621-28 1938 321 1985 698L1547 700C1506 481 1334 355 1103 355C1061 355 1022 359 984 367L1385 1610C1472 1547 1529 1452 1547 1331L1985 1331C1946 1652 1768 1881 1510 1995L1611 2308L1350 2308L1271 2063C1215 2072 1156 2076 1096 2076C555 2076 142 1694 142 1024C142 566 333 241 630 83ZM761 487C647 598 581 778 581 1024C581 1450 789 1693 1106 1693C1121 1693 1136 1692 1150 1691Z"  horiz-adv-x="2118" vert-adv-y="2816"  />

      
      <glyph glyph-name="uni0186" unicode="&#x0186;" d="M133 1331L571 1331C604 1556 775 1693 1012 1693C1329 1693 1537 1450 1537 1024C1537 586 1326 355 1015 355C784 355 612 481 571 700L133 698C180 321 497-28 1022-28C1570-28 1976 356 1976 1024C1976 1694 1563 2076 1022 2076C548 2076 190 1804 133 1331Z"  horiz-adv-x="2118" vert-adv-y="2816"  />

      
      <glyph glyph-name="uni03F9" unicode="&#x03F9;" d="M1985 1331C1928 1804 1570 2076 1096 2076C555 2076 142 1694 142 1024C142 356 548-28 1096-28C1621-28 1938 321 1985 698L1547 700C1506 481 1334 355 1103 355C792 355 581 586 581 1024C581 1450 789 1693 1106 1693C1343 1693 1514 1556 1547 1331Z"  horiz-adv-x="2118" vert-adv-y="2816"  />

      
      <glyph glyph-name="uni44" unicode="&#x44;" d="M904 0C1528 0 1906 386 1906 1026C1906 1664 1528 2048 910 2048L178 2048L178 0ZM611 371L611 1677L887 1677C1271 1677 1474 1481 1474 1026C1474 569 1271 371 886 371Z"  horiz-adv-x="2048" vert-adv-y="2816"  />

      
      <glyph glyph-name="uni018A" unicode="&#x018A;" d="M100 1319L486 1319L486 1438C484 1562 521 1677 687 1677L766 1677L766 0L1492 0C2116 0 2494 386 2494 1026C2494 1664 2116 2048 1498 2048L686 2048C322 2048 99 1842 100 1520ZM1199 1677L1475 1677C1859 1677 2062 1481 2062 1026C2062 569 1859 371 1474 371L1199 371Z"  horiz-adv-x="2636" vert-adv-y="2816"  />

      
      <glyph glyph-name="uni010E" unicode="&#x010E;" d="M904 0C1528 0 1906 386 1906 1026C1906 1664 1528 2048 910 2048L178 2048L178 0ZM611 371L611 1677L887 1677C1271 1677 1474 1481 1474 1026C1474 569 1271 371 886 371ZM628 2686L265 2686L265 2672L670 2232L987 2232L1393 2672L1393 2686L1030 2686L829 2442Z"  horiz-adv-x="2048" vert-adv-y="2816"  />

      
      <glyph glyph-name="uni1E0A" unicode="&#x1E0A;" d="M904 0C1528 0 1906 386 1906 1026C1906 1664 1528 2048 910 2048L178 2048L178 0ZM611 371L611 1677L887 1677C1271 1677 1474 1481 1474 1026C1474 569 1271 371 886 371ZM828 2246C955 2246 1059 2343 1059 2462C1059 2580 955 2677 828 2677C702 2677 598 2580 598 2462C598 2343 702 2246 828 2246Z"  horiz-adv-x="2048" vert-adv-y="2816"  />

      
      <glyph glyph-name="uni1E0C" unicode="&#x1E0C;" d="M904 0C1528 0 1906 386 1906 1026C1906 1664 1528 2048 910 2048L178 2048L178 0ZM611 371L611 1677L887 1677C1271 1677 1474 1481 1474 1026C1474 569 1271 371 886 371ZM899-576C1026-576 1130-479 1130-360C1130-242 1026-145 899-145C773-145 669-242 669-360C669-479 773-576 899-576Z"  horiz-adv-x="2048" vert-adv-y="2816"  />

      
      <glyph glyph-name="uni1E0E" unicode="&#x1E0E;" d="M904 0C1528 0 1906 386 1906 1026C1906 1664 1528 2048 910 2048L178 2048L178 0ZM611 371L611 1677L887 1677C1271 1677 1474 1481 1474 1026C1474 569 1271 371 886 371ZM1386-256L412-256L412-487L1386-487Z"  horiz-adv-x="2048" vert-adv-y="2816"  />

      
      <glyph glyph-name="uni1E10" unicode="&#x1E10;" d="M904 0C1528 0 1906 386 1906 1026C1906 1664 1528 2048 910 2048L178 2048L178 0ZM611 371L611 1677L887 1677C1271 1677 1474 1481 1474 1026C1474 569 1271 371 886 371ZM581-656L880-656L1099-162L705-162Z"  horiz-adv-x="2048" vert-adv-y="2816"  />

      
      <glyph glyph-name="uni1E12" unicode="&#x1E12;" d="M904 0C1528 0 1906 386 1906 1026C1906 1664 1528 2048 910 2048L178 2048L178 0ZM611 371L611 1677L887 1677C1271 1677 1474 1481 1474 1026C1474 569 1271 371 886 371ZM698-584L899-340L1100-584L1463-584L1463-570L1057-130L740-130L335-570L335-584Z"  horiz-adv-x="2048" vert-adv-y="2816"  />

      
      <glyph glyph-name="uni0189" unicode="&#x0189;" d="M904 0C1528 0 1906 386 1906 1026C1906 1664 1528 2048 910 2048L178 2048L178 1205L-107 1205L-107 954L178 954L178 0ZM611 371L611 954L891 954L891 1205L611 1205L611 1677L887 1677C1271 1677 1474 1481 1474 1026C1474 569 1271 371 886 371Z"  horiz-adv-x="2048" vert-adv-y="2816"  />

      
      <glyph glyph-name="uni01F2" unicode="&#x01F2;" d="M904 0C1528 0 1906 386 1906 1026C1906 1664 1528 2048 910 2048L178 2048L178 0ZM2210 0L3501 0L3501 340L2769 340L2769 351L3475 1259L3475 1536L2236 1536L2236 1196L2962 1196L2962 1185L2210 254ZM611 371L611 1677L887 1677C1271 1677 1474 1481 1474 1026C1474 569 1271 371 886 371Z"  horiz-adv-x="3658" vert-adv-y="2816"  />

      
      <glyph glyph-name="uni01C5" unicode="&#x01C5;" d="M904 0C1528 0 1906 386 1906 1026C1906 1664 1528 2048 910 2048L178 2048L178 0ZM2210 0L3501 0L3501 340L2769 340L2769 351L3475 1259L3475 1536L2236 1536L2236 1196L2962 1196L2962 1185L2210 254ZM611 371L611 1677L887 1677C1271 1677 1474 1481 1474 1026C1474 569 1271 371 886 371ZM2650 2174L2287 2174L2287 2160L2692 1720L3009 1720L3415 2160L3415 2174L3052 2174L2851 1930Z"  horiz-adv-x="3658" vert-adv-y="2816"  />

      
      <glyph glyph-name="uni45" unicode="&#x45;" d="M178 0L1562 0L1562 357L611 357L611 846L1487 846L1487 1203L611 1203L611 1691L1558 1691L1558 2048L178 2048Z"  horiz-adv-x="1725" vert-adv-y="2816"  />

      
      <glyph glyph-name="unic8" unicode="&#xc8;" d="M178 0L1562 0L1562 357L611 357L611 846L1487 846L1487 1203L611 1203L611 1691L1558 1691L1558 2048L178 2048ZM724 2246L1025 2246L812 2701L419 2701Z"  horiz-adv-x="1725" vert-adv-y="2816"  />

      
      <glyph glyph-name="unic9" unicode="&#xc9;" d="M178 0L1562 0L1562 357L611 357L611 846L1487 846L1487 1203L611 1203L611 1691L1558 1691L1558 2048L178 2048ZM718 2246L1019 2246L1324 2701L930 2701Z"  horiz-adv-x="1725" vert-adv-y="2816"  />

      
      <glyph glyph-name="unica" unicode="&#xca;" d="M178 0L1562 0L1562 357L611 357L611 846L1487 846L1487 1203L611 1203L611 1691L1558 1691L1558 2048L178 2048ZM670 2230L871 2474L1072 2230L1435 2230L1435 2244L1029 2684L712 2684L307 2244L307 2230Z"  horiz-adv-x="1725" vert-adv-y="2816"  />

      
      <glyph glyph-name="unicb" unicode="&#xcb;" d="M178 0L1562 0L1562 357L611 357L611 846L1487 846L1487 1203L611 1203L611 1691L1558 1691L1558 2048L178 2048ZM566 2258C682 2258 774 2351 774 2462C774 2575 682 2665 566 2665C451 2665 356 2575 356 2462C356 2351 451 2258 566 2258ZM1178 2258C1294 2258 1386 2351 1386 2462C1386 2575 1294 2665 1178 2665C1063 2665 968 2575 968 2462C968 2351 1063 2258 1178 2258Z"  horiz-adv-x="1725" vert-adv-y="2816"  />

      
      <glyph glyph-name="uni0112" unicode="&#x0112;" d="M178 0L1562 0L1562 357L611 357L611 846L1487 846L1487 1203L611 1203L611 1691L1558 1691L1558 2048L178 2048ZM1358 2560L384 2560L384 2329L1358 2329Z"  horiz-adv-x="1725" vert-adv-y="2816"  />

      
      <glyph glyph-name="uni0114" unicode="&#x0114;" d="M178 0L1562 0L1562 357L611 357L611 846L1487 846L1487 1203L611 1203L611 1691L1558 1691L1558 2048L178 2048ZM1069 2584C1069 2490 1013 2405 871 2405C725 2405 671 2492 672 2584L377 2584C377 2342 568 2180 871 2180C1174 2180 1365 2342 1366 2584Z"  horiz-adv-x="1725" vert-adv-y="2816"  />

      
      <glyph glyph-name="uni0116" unicode="&#x0116;" d="M178 0L1562 0L1562 357L611 357L611 846L1487 846L1487 1203L611 1203L611 1691L1558 1691L1558 2048L178 2048ZM871 2246C998 2246 1102 2343 1102 2462C1102 2580 998 2677 871 2677C745 2677 641 2580 641 2462C641 2343 745 2246 871 2246Z"  horiz-adv-x="1725" vert-adv-y="2816"  />

      
      <glyph glyph-name="uni0118" unicode="&#x0118;" d="M178 0L1101 0C1034-89 1012-204 1033-310C1064-479 1191-574 1368-574C1470-574 1547-542 1596-514L1552-294C1525-303 1492-318 1447-318C1383-318 1349-282 1350-218C1349-122 1437-59 1563 0L1562 0L1562 357L611 357L611 846L1487 846L1487 1203L611 1203L611 1691L1558 1691L1558 2048L178 2048Z"  horiz-adv-x="1725" vert-adv-y="2816"  />

      
      <glyph glyph-name="uni011A" unicode="&#x011A;" d="M178 0L1562 0L1562 357L611 357L611 846L1487 846L1487 1203L611 1203L611 1691L1558 1691L1558 2048L178 2048ZM670 2686L307 2686L307 2672L712 2232L1029 2232L1435 2672L1435 2686L1072 2686L871 2442Z"  horiz-adv-x="1725" vert-adv-y="2816"  />

      
      <glyph glyph-name="uni0204" unicode="&#x0204;" d="M178 0L1562 0L1562 357L611 357L611 846L1487 846L1487 1203L611 1203L611 1691L1558 1691L1558 2048L178 2048ZM705 2246L673 2515L292 2701L355 2432ZM1194 2246L1215 2515L887 2701L884 2432Z"  horiz-adv-x="1725" vert-adv-y="2816"  />

      
      <glyph glyph-name="uni0206" unicode="&#x0206;" d="M178 0L1562 0L1562 357L611 357L611 846L1487 846L1487 1203L611 1203L611 1691L1558 1691L1558 2048L178 2048ZM374 2295L671 2295C670 2387 724 2473 869 2473C1011 2473 1067 2388 1068 2295L1365 2295C1364 2537 1172 2710 869 2710C564 2710 373 2537 374 2295Z"  horiz-adv-x="1725" vert-adv-y="2816"  />

      
      <glyph glyph-name="uni0228" unicode="&#x0228;" d="M178 0L766 0L723-195C862-212 926-251 923-333C920-418 819-458 651-458L655-648C990-648 1184-521 1183-322C1182-182 1085-100 948-79L963 0L1562 0L1562 357L611 357L611 846L1487 846L1487 1203L611 1203L611 1691L1558 1691L1558 2048L178 2048Z"  horiz-adv-x="1725" vert-adv-y="2816"  />

      
      <glyph glyph-name="uni1E14" unicode="&#x1E14;" d="M178 0L1562 0L1562 357L611 357L611 846L1487 846L1487 1203L611 1203L611 1691L1558 1691L1558 2048L178 2048ZM1358 2514L384 2514L384 2283L1358 2283ZM729 2683L1050 2683L771 3036L386 3036Z"  horiz-adv-x="1725" vert-adv-y="2816"  />

      
      <glyph glyph-name="uni1E16" unicode="&#x1E16;" d="M178 0L1562 0L1562 357L611 357L611 846L1487 846L1487 1203L611 1203L611 1691L1558 1691L1558 2048L178 2048ZM1358 2514L384 2514L384 2283L1358 2283ZM693 2683L1013 2683L1357 3036L972 3036Z"  horiz-adv-x="1725" vert-adv-y="2816"  />

      
      <glyph glyph-name="uni1E18" unicode="&#x1E18;" d="M178 0L1562 0L1562 357L611 357L611 846L1487 846L1487 1203L611 1203L611 1691L1558 1691L1558 2048L178 2048ZM662-584L863-340L1064-584L1427-584L1427-570L1021-130L704-130L299-570L299-584Z"  horiz-adv-x="1725" vert-adv-y="2816"  />

      
      <glyph glyph-name="uni1E1A" unicode="&#x1E1A;" d="M178 0L1562 0L1562 357L611 357L611 846L1487 846L1487 1203L611 1203L611 1691L1558 1691L1558 2048L178 2048ZM631-549C631-456 677-397 746-397C799-397 839-426 883-459C939-500 1003-548 1115-547C1296-546 1438-405 1440-152L1207-145C1206-237 1165-299 1088-300C1038-300 996-271 950-238C890-197 823-149 719-150C537-151 394-292 394-546Z"  horiz-adv-x="1725" vert-adv-y="2816"  />

      
      <glyph glyph-name="uni1E1C" unicode="&#x1E1C;" d="M178 0L766 0L723-195C862-212 926-251 923-333C920-418 819-458 651-458L655-648C990-648 1184-521 1183-322C1182-182 1085-100 948-79L963 0L1562 0L1562 357L611 357L611 846L1487 846L1487 1203L611 1203L611 1691L1558 1691L1558 2048L178 2048ZM1069 2584C1069 2490 1013 2405 871 2405C725 2405 671 2492 672 2584L377 2584C377 2342 568 2180 871 2180C1174 2180 1365 2342 1366 2584Z"  horiz-adv-x="1725" vert-adv-y="2816"  />

      
      <glyph glyph-name="uni1EB8" unicode="&#x1EB8;" d="M178 0L1562 0L1562 357L611 357L611 846L1487 846L1487 1203L611 1203L611 1691L1558 1691L1558 2048L178 2048ZM863-576C990-576 1094-479 1094-360C1094-242 990-145 863-145C737-145 633-242 633-360C633-479 737-576 863-576Z"  horiz-adv-x="1725" vert-adv-y="2816"  />

      
      <glyph glyph-name="uni1EBA" unicode="&#x1EBA;" d="M178 0L1562 0L1562 357L611 357L611 846L1487 846L1487 1203L611 1203L611 1691L1558 1691L1558 2048L178 2048ZM1028 2268L1028 2356C1135 2372 1242 2431 1241 2552C1242 2722 1052 2824 696 2824L685 2631C799 2631 886 2611 885 2539C886 2487 831 2454 690 2448L712 2268Z"  horiz-adv-x="1725" vert-adv-y="2816"  />

      
      <glyph glyph-name="uni1EBC" unicode="&#x1EBC;" d="M178 0L1562 0L1562 357L611 357L611 846L1487 846L1487 1203L611 1203L611 1691L1558 1691L1558 2048L178 2048ZM585 2237C585 2330 631 2389 700 2389C753 2389 793 2360 837 2327C893 2286 957 2238 1069 2239C1250 2240 1392 2381 1394 2634L1161 2641C1160 2549 1119 2487 1042 2486C992 2486 950 2515 904 2548C844 2589 777 2637 673 2636C491 2635 348 2494 348 2240Z"  horiz-adv-x="1725" vert-adv-y="2816"  />

      
      <glyph glyph-name="uni1EBE" unicode="&#x1EBE;" d="M178 0L1562 0L1562 357L611 357L611 846L1487 846L1487 1203L611 1203L611 1691L1558 1691L1558 2048L178 2048ZM351 2216L657 2216L871 2384L1082 2216L1389 2216L984 2527L754 2527ZM1284 2392L1525 2392L1848 2767L1518 2767Z"  horiz-adv-x="1725" vert-adv-y="2816"  />

      
      <glyph glyph-name="uni1EC0" unicode="&#x1EC0;" d="M178 0L1562 0L1562 357L611 357L611 846L1487 846L1487 1203L611 1203L611 1691L1558 1691L1558 2048L178 2048ZM984 2521L755 2521L353 2210L658 2210L871 2378L1083 2210L1390 2210ZM222 2760L-105 2760L219 2386L457 2386Z"  horiz-adv-x="1725" vert-adv-y="2816"  />

      
      <glyph glyph-name="uni1EC2" unicode="&#x1EC2;" d="M178 0L1562 0L1562 357L611 357L611 846L1487 846L1487 1203L611 1203L611 1691L1558 1691L1558 2048L178 2048ZM990 2516L745 2516L351 2205L644 2205L869 2380L1091 2205L1384 2205ZM1475 2380L1475 2452C1564 2466 1655 2517 1655 2617C1655 2761 1509 2844 1238 2844L1228 2683C1326 2683 1399 2666 1399 2605C1399 2559 1349 2536 1235 2530L1254 2380Z"  horiz-adv-x="1725" vert-adv-y="2816"  />

      
      <glyph glyph-name="uni1EC4" unicode="&#x1EC4;" d="M178 0L1562 0L1562 357L611 357L611 846L1487 846L1487 1203L611 1203L611 1691L1558 1691L1558 2048L178 2048ZM985 2508L757 2508L351 2201L649 2201L869 2369L1094 2201L1388 2201ZM1089 2848C1088 2797 1059 2742 1018 2742C921 2742 820 2827 718 2827C602 2827 530 2717 530 2614L674 2574C674 2625 702 2669 747 2669C847 2669 920 2581 1047 2581C1162 2581 1236 2689 1237 2797Z"  horiz-adv-x="1725" vert-adv-y="2816"  />

      
      <glyph glyph-name="uni1EC6" unicode="&#x1EC6;" d="M178 0L1562 0L1562 357L611 357L611 846L1487 846L1487 1203L611 1203L611 1691L1558 1691L1558 2048L178 2048ZM670 2230L871 2474L1072 2230L1435 2230L1435 2244L1029 2684L712 2684L307 2244L307 2230ZM863-576C990-576 1094-479 1094-360C1094-242 990-145 863-145C737-145 633-242 633-360C633-479 737-576 863-576Z"  horiz-adv-x="1725" vert-adv-y="2816"  />

      
      <glyph glyph-name="uni0246" unicode="&#x0246;" d="M1412 2308L1184 2308L1109 2048L178 2048L178 0L519 0L444-260L672-260L747 0L1562 0L1562 357L850 357L991 846L1487 846L1487 1203L1094 1203L1234 1691L1558 1691L1558 2048L1337 2048ZM1006 1691L866 1203L611 1203L611 1691ZM763 846L622 357L611 357L611 846Z"  horiz-adv-x="1725" vert-adv-y="2816"  />

      
      <glyph glyph-name="uni018E" unicode="&#x018E;" d="M1510 2048L126 2048L126 1691L1077 1691L1077 1202L201 1202L201 845L1077 845L1077 357L130 357L130 0L1510 0Z"  horiz-adv-x="1726" vert-adv-y="2816"  />

      
      <glyph glyph-name="uni0395" unicode="&#x0395;" d="M178 0L1562 0L1562 357L611 357L611 846L1487 846L1487 1203L611 1203L611 1691L1558 1691L1558 2048L178 2048Z"  horiz-adv-x="1725" vert-adv-y="2816"  />

      
      <glyph glyph-name="uni0388" unicode="&#x0388;" d="M664 0L2048 0L2048 357L1097 357L1097 846L1973 846L1973 1203L1097 1203L1097 1691L2044 1691L2044 2048L664 2048ZM133 1720L384 1720L621 2195L240 2195Z"  horiz-adv-x="2210" vert-adv-y="2816"  />

      
      <glyph glyph-name="uni1F18" unicode="&#x1F18;" d="M587 0L1971 0L1971 357L1020 357L1020 846L1896 846L1896 1203L1020 1203L1020 1691L1967 1691L1967 2048L587 2048ZM429 2048L188 2048L188 1925C188 1817 161 1734 78 1677L196 1552C331 1616 429 1745 429 1917Z"  horiz-adv-x="2134" vert-adv-y="2816"  />

      
      <glyph glyph-name="uni1F19" unicode="&#x1F19;" d="M591 0L1975 0L1975 357L1024 357L1024 846L1900 846L1900 1203L1024 1203L1024 1691L1971 1691L1971 2048L591 2048ZM129 1917C131 1745 230 1616 362 1552L480 1677C395 1737 374 1829 373 1925L373 2048L129 2048Z"  horiz-adv-x="2138" vert-adv-y="2816"  />

      
      <glyph glyph-name="uni1F1A" unicode="&#x1F1A;" d="M1129 0L2513 0L2513 357L1562 357L1562 846L2438 846L2438 1203L1562 1203L1562 1691L2509 1691L2509 2048L1129 2048ZM498 2048L241 2048L241 1944C241 1814 201 1720 126 1636L237 1552C402 1640 499 1776 498 1936ZM1021 1604L860 2048L562 2048L562 2020L888 1584L1021 1584Z"  horiz-adv-x="2676" vert-adv-y="2816"  />

      
      <glyph glyph-name="uni1F1B" unicode="&#x1F1B;" d="M1047 0L2431 0L2431 357L1480 357L1480 846L2356 846L2356 1203L1480 1203L1480 1691L2427 1691L2427 2048L1047 2048ZM122 1917C120 1745 220 1616 359 1552L477 1677C385 1737 366 1829 367 1925L367 2048L122 2048ZM937 1614L780 2048L478 2048L478 2020L804 1582L937 1582Z"  horiz-adv-x="2594" vert-adv-y="2816"  />

      
      <glyph glyph-name="uni1F1C" unicode="&#x1F1C;" d="M1075 0L2459 0L2459 357L1508 357L1508 846L2384 846L2384 1203L1508 1203L1508 1691L2455 1691L2455 2048L1075 2048ZM487 2048L241 2048L241 1925C240 1829 219 1737 132 1677L249 1552C387 1616 486 1747 487 1917ZM529 1582L661 1582L987 2020L987 2048L689 2048L529 1614Z"  horiz-adv-x="2622" vert-adv-y="2816"  />

      
      <glyph glyph-name="uni1F1D" unicode="&#x1F1D;" d="M1113 0L2497 0L2497 357L1546 357L1546 846L2422 846L2422 1203L1546 1203L1546 1691L2493 1691L2493 2048L1113 2048ZM362 1552L479 1677C398 1734 373 1817 372 1925L372 2048L129 2048L129 1917C129 1740 233 1614 362 1552ZM558 1582L686 1582L1014 2020L1014 2048L712 2048L558 1614Z"  horiz-adv-x="2660" vert-adv-y="2816"  />

      
      <glyph glyph-name="uni1FC8" unicode="&#x1FC8;" d="M701 0L2085 0L2085 357L1134 357L1134 846L2010 846L2010 1203L1134 1203L1134 1691L2081 1691L2081 2048L701 2048ZM452 1580L580 1580L580 1618L424 2048L126 2048L126 2020Z"  horiz-adv-x="2248" vert-adv-y="2816"  />

      
      <glyph glyph-name="uni1FC9" unicode="&#x1FC9;" d="M669 0L2053 0L2053 357L1102 357L1102 846L1978 846L1978 1203L1102 1203L1102 1691L2049 1691L2049 2048L669 2048ZM148 1728L360 1728L685 2168L685 2196L304 2196L148 1766Z"  horiz-adv-x="2216" vert-adv-y="2816"  />

      
      <glyph glyph-name="uni0415" unicode="&#x0415;" d="M178 0L1562 0L1562 357L611 357L611 846L1487 846L1487 1203L611 1203L611 1691L1558 1691L1558 2048L178 2048Z"  horiz-adv-x="1725" vert-adv-y="2816"  />

      
      <glyph glyph-name="uni0400" unicode="&#x0400;" d="M178 0L1562 0L1562 357L611 357L611 846L1487 846L1487 1203L611 1203L611 1691L1558 1691L1558 2048L178 2048ZM724 2246L1025 2246L812 2701L419 2701Z"  horiz-adv-x="1725" vert-adv-y="2816"  />

      
      <glyph glyph-name="uni0401" unicode="&#x0401;" d="M178 0L1562 0L1562 357L611 357L611 846L1487 846L1487 1203L611 1203L611 1691L1558 1691L1558 2048L178 2048ZM566 2258C682 2258 774 2351 774 2462C774 2575 682 2665 566 2665C451 2665 356 2575 356 2462C356 2351 451 2258 566 2258ZM1178 2258C1294 2258 1386 2351 1386 2462C1386 2575 1294 2665 1178 2665C1063 2665 968 2575 968 2462C968 2351 1063 2258 1178 2258Z"  horiz-adv-x="1725" vert-adv-y="2816"  />

      
      <glyph glyph-name="uni04D6" unicode="&#x04D6;" d="M178 0L1562 0L1562 357L611 357L611 846L1487 846L1487 1203L611 1203L611 1691L1558 1691L1558 2048L178 2048ZM1069 2584C1069 2490 1013 2405 871 2405C725 2405 671 2492 672 2584L377 2584C377 2342 568 2180 871 2180C1174 2180 1365 2342 1366 2584Z"  horiz-adv-x="1725" vert-adv-y="2816"  />

      
      <glyph glyph-name="uni46" unicode="&#x46;" d="M178 0L611 0L611 846L1444 846L1444 1203L611 1203L611 1691L1534 1691L1534 2048L178 2048Z"  horiz-adv-x="1647" vert-adv-y="2816"  />

      
      <glyph glyph-name="uni0191" unicode="&#x0191;" d="M241 0L241-93C241-212 140-243 28-243C24-243 20-243 16-243C-7-243-36-243-58-240L-58-566C1-576 78-576 117-576C414-576 674-490 674-94L674 0L673 0L673 846L1506 846L1506 1203L673 1203L673 1691L1596 1691L1596 2048L240 2048L240 0Z"  horiz-adv-x="1710" vert-adv-y="2816"  />

      
      <glyph glyph-name="uni1E1E" unicode="&#x1E1E;" d="M178 0L611 0L611 846L1444 846L1444 1203L611 1203L611 1691L1534 1691L1534 2048L178 2048ZM868 2246C995 2246 1099 2343 1099 2462C1099 2580 995 2677 868 2677C742 2677 638 2580 638 2462C638 2343 742 2246 868 2246Z"  horiz-adv-x="1647" vert-adv-y="2816"  />

      
      <glyph glyph-name="uni2132" unicode="&#x2132;" d="M1469 2048L1036 2048L1036 1202L203 1202L203 845L1036 845L1036 357L113 357L113 0L1469 0Z"  horiz-adv-x="1647" vert-adv-y="2816"  />

      
      <glyph glyph-name="uni47" unicode="&#x47;" d="M1536 1386L1976 1386C1920 1791 1563 2076 1100 2076C559 2076 142 1686 142 1022C142 374 532-28 1109-28C1626-28 1995 299 1995 838L1995 1096L1138 1096L1138 770L1578 770C1572 516 1399 355 1111 355C786 355 581 598 581 1026C581 1452 794 1693 1107 1693C1330 1693 1481 1578 1536 1386Z"  horiz-adv-x="2142" vert-adv-y="2816"  />

      
      <glyph glyph-name="uni01E4" unicode="&#x01E4;" d="M2090 662L1981 662C1990 718 1995 777 1995 838L1995 1096L1138 1096L1138 770L1578 770C1577 732 1572 696 1564 662L1138 662L1138 508L1489 508C1410 411 1280 355 1111 355C786 355 581 598 581 1026C581 1452 794 1693 1107 1693C1330 1693 1481 1578 1536 1386L1976 1386C1920 1791 1563 2076 1100 2076C559 2076 142 1686 142 1022C142 374 532-28 1109-28C1510-28 1822 169 1942 508L2090 508Z"  horiz-adv-x="2142" vert-adv-y="2816"  />

      
      <glyph glyph-name="uni0193" unicode="&#x0193;" d="M1976 1386C1975 1391 1975 1395 1974 1400L1974 1698C1974 1866 2099 1899 2239 1899C2279 1899 2319 1893 2358 1889L2358 2228C2289 2245 2225 2252 2158 2252C1912 2252 1694 2147 1593 1949C1454 2030 1286 2076 1100 2076C559 2076 142 1686 142 1022C142 374 532-28 1109-28C1626-28 1995 299 1995 838L1995 1096L1138 1096L1138 770L1578 770C1572 516 1399 355 1111 355C786 355 581 598 581 1026C581 1452 794 1693 1107 1693C1326 1693 1476 1582 1533 1396L1533 1386Z"  horiz-adv-x="2349" vert-adv-y="2816"  />

      
      <glyph glyph-name="uni011C" unicode="&#x011C;" d="M1536 1386L1976 1386C1920 1791 1563 2076 1100 2076C559 2076 142 1686 142 1022C142 374 532-28 1109-28C1626-28 1995 299 1995 838L1995 1096L1138 1096L1138 770L1578 770C1572 516 1399 355 1111 355C786 355 581 598 581 1026C581 1452 794 1693 1107 1693C1330 1693 1481 1578 1536 1386ZM890 2230L1091 2474L1292 2230L1655 2230L1655 2244L1249 2684L932 2684L527 2244L527 2230Z"  horiz-adv-x="2142" vert-adv-y="2816"  />

      
      <glyph glyph-name="uni011E" unicode="&#x011E;" d="M1536 1386L1976 1386C1920 1791 1563 2076 1100 2076C559 2076 142 1686 142 1022C142 374 532-28 1109-28C1626-28 1995 299 1995 838L1995 1096L1138 1096L1138 770L1578 770C1572 516 1399 355 1111 355C786 355 581 598 581 1026C581 1452 794 1693 1107 1693C1330 1693 1481 1578 1536 1386ZM1289 2584C1289 2490 1233 2405 1091 2405C945 2405 891 2492 892 2584L597 2584C597 2342 788 2180 1091 2180C1394 2180 1585 2342 1586 2584Z"  horiz-adv-x="2142" vert-adv-y="2816"  />

      
      <glyph glyph-name="uni0120" unicode="&#x0120;" d="M1536 1386L1976 1386C1920 1791 1563 2076 1100 2076C559 2076 142 1686 142 1022C142 374 532-28 1109-28C1626-28 1995 299 1995 838L1995 1096L1138 1096L1138 770L1578 770C1572 516 1399 355 1111 355C786 355 581 598 581 1026C581 1452 794 1693 1107 1693C1330 1693 1481 1578 1536 1386ZM1090 2246C1217 2246 1321 2343 1321 2462C1321 2580 1217 2677 1090 2677C964 2677 860 2580 860 2462C860 2343 964 2246 1090 2246Z"  horiz-adv-x="2142" vert-adv-y="2816"  />

      
      <glyph glyph-name="uni0122" unicode="&#x0122;" d="M1536 1386L1976 1386C1920 1791 1563 2076 1100 2076C559 2076 142 1686 142 1022C142 374 532-28 1109-28C1626-28 1995 299 1995 838L1995 1096L1138 1096L1138 770L1578 770C1572 516 1399 355 1111 355C786 355 581 598 581 1026C581 1452 794 1693 1107 1693C1330 1693 1481 1578 1536 1386ZM768-651L1067-651L1286-157L892-157Z"  horiz-adv-x="2142" vert-adv-y="2816"  />

      
      <glyph glyph-name="uni01E6" unicode="&#x01E6;" d="M1536 1386L1976 1386C1920 1791 1563 2076 1100 2076C559 2076 142 1686 142 1022C142 374 532-28 1109-28C1626-28 1995 299 1995 838L1995 1096L1138 1096L1138 770L1578 770C1572 516 1399 355 1111 355C786 355 581 598 581 1026C581 1452 794 1693 1107 1693C1330 1693 1481 1578 1536 1386ZM890 2686L527 2686L527 2672L932 2232L1249 2232L1655 2672L1655 2686L1292 2686L1091 2442Z"  horiz-adv-x="2142" vert-adv-y="2816"  />

      
      <glyph glyph-name="uni01F4" unicode="&#x01F4;" d="M1536 1386L1976 1386C1920 1791 1563 2076 1100 2076C559 2076 142 1686 142 1022C142 374 532-28 1109-28C1626-28 1995 299 1995 838L1995 1096L1138 1096L1138 770L1578 770C1572 516 1399 355 1111 355C786 355 581 598 581 1026C581 1452 794 1693 1107 1693C1330 1693 1481 1578 1536 1386ZM937 2246L1238 2246L1543 2701L1149 2701Z"  horiz-adv-x="2142" vert-adv-y="2816"  />

      
      <glyph glyph-name="uni1E20" unicode="&#x1E20;" d="M1536 1386L1976 1386C1920 1791 1563 2076 1100 2076C559 2076 142 1686 142 1022C142 374 532-28 1109-28C1626-28 1995 299 1995 838L1995 1096L1138 1096L1138 770L1578 770C1572 516 1399 355 1111 355C786 355 581 598 581 1026C581 1452 794 1693 1107 1693C1330 1693 1481 1578 1536 1386ZM1577 2560L603 2560L603 2329L1577 2329Z"  horiz-adv-x="2142" vert-adv-y="2816"  />

      
      <glyph glyph-name="uniE002" unicode="&#xE002;" d="M1109-28C1361-28 1543 67 1681 234L1692 234L1717 0L2013 0L2013 1096L1138 1096L1138 770L1586 770C1578 522 1403 355 1111 355C789 355 581 598 581 1026C581 1453 803 1693 1116 1693C1339 1693 1504 1580 1558 1386L1996 1386C1940 1793 1572 2076 1109 2076C568 2076 142 1686 142 1022C142 374 535-28 1109-28Z"  horiz-adv-x="2160" vert-adv-y="2816"  />

      
      <glyph glyph-name="uniE003" unicode="&#xE003;" d="M2110 662L2013 662L2013 1096L1138 1096L1138 770L1586 770C1585 732 1579 696 1571 662L1138 662L1138 508L1492 508C1412 412 1281 355 1111 355C789 355 581 598 581 1026C581 1453 803 1693 1116 1693C1339 1693 1504 1580 1558 1386L1996 1386C1940 1793 1572 2076 1109 2076C568 2076 142 1686 142 1022C142 374 535-28 1109-28C1361-28 1543 67 1681 234L1692 234L1717 0L2013 0L2013 508L2110 508Z"  horiz-adv-x="2162" vert-adv-y="2816"  />

      
      <glyph glyph-name="uniE004" unicode="&#xE004;" d="M1996 1386L1996 1698C1996 1866 2121 1899 2261 1899C2301 1899 2341 1893 2380 1889L2380 2228C2310 2245 2246 2252 2179 2252C1932 2252 1712 2145 1613 1946C1471 2029 1298 2076 1109 2076C568 2076 142 1686 142 1022C142 374 535-28 1109-28C1361-28 1543 67 1681 234L1692 234L1717 0L2013 0L2013 1096L1138 1096L1138 770L1586 770C1578 522 1403 355 1111 355C789 355 581 598 581 1026C581 1453 803 1693 1116 1693C1334 1693 1496 1585 1554 1399L1554 1386Z"  horiz-adv-x="2349" vert-adv-y="2816"  />

      
      <glyph glyph-name="uniE005" unicode="&#xE005;" d="M1109-28C1361-28 1543 67 1681 234L1692 234L1717 0L2013 0L2013 1096L1138 1096L1138 770L1586 770C1578 522 1403 355 1111 355C789 355 581 598 581 1026C581 1453 803 1693 1116 1693C1339 1693 1504 1580 1558 1386L1996 1386C1940 1793 1572 2076 1109 2076C568 2076 142 1686 142 1022C142 374 535-28 1109-28ZM890 2230L1091 2474L1292 2230L1655 2230L1655 2244L1249 2684L932 2684L527 2244L527 2230Z"  horiz-adv-x="2160" vert-adv-y="2816"  />

      
      <glyph glyph-name="uniE006" unicode="&#xE006;" d="M1109-28C1361-28 1543 67 1681 234L1692 234L1717 0L2013 0L2013 1096L1138 1096L1138 770L1586 770C1578 522 1403 355 1111 355C789 355 581 598 581 1026C581 1453 803 1693 1116 1693C1339 1693 1504 1580 1558 1386L1996 1386C1940 1793 1572 2076 1109 2076C568 2076 142 1686 142 1022C142 374 535-28 1109-28ZM1289 2584C1289 2490 1233 2405 1091 2405C945 2405 891 2492 892 2584L597 2584C597 2342 788 2180 1091 2180C1394 2180 1585 2342 1586 2584Z"  horiz-adv-x="2160" vert-adv-y="2816"  />

      
      <glyph glyph-name="uniE007" unicode="&#xE007;" d="M1109-28C1361-28 1543 67 1681 234L1692 234L1717 0L2013 0L2013 1096L1138 1096L1138 770L1586 770C1578 522 1403 355 1111 355C789 355 581 598 581 1026C581 1453 803 1693 1116 1693C1339 1693 1504 1580 1558 1386L1996 1386C1940 1793 1572 2076 1109 2076C568 2076 142 1686 142 1022C142 374 535-28 1109-28ZM1090 2246C1217 2246 1321 2343 1321 2462C1321 2580 1217 2677 1090 2677C964 2677 860 2580 860 2462C860 2343 964 2246 1090 2246Z"  horiz-adv-x="2160" vert-adv-y="2816"  />

      
      <glyph glyph-name="uniE008" unicode="&#xE008;" d="M1109-28C1361-28 1543 67 1681 234L1692 234L1717 0L2013 0L2013 1096L1138 1096L1138 770L1586 770C1578 522 1403 355 1111 355C789 355 581 598 581 1026C581 1453 803 1693 1116 1693C1339 1693 1504 1580 1558 1386L1996 1386C1940 1793 1572 2076 1109 2076C568 2076 142 1686 142 1022C142 374 535-28 1109-28ZM768-651L1067-651L1286-157L892-157Z"  horiz-adv-x="2160" vert-adv-y="2816"  />

      
      <glyph glyph-name="uniE009" unicode="&#xE009;" d="M1109-28C1361-28 1543 67 1681 234L1692 234L1717 0L2013 0L2013 1096L1138 1096L1138 770L1586 770C1578 522 1403 355 1111 355C789 355 581 598 581 1026C581 1453 803 1693 1116 1693C1339 1693 1504 1580 1558 1386L1996 1386C1940 1793 1572 2076 1109 2076C568 2076 142 1686 142 1022C142 374 535-28 1109-28ZM890 2686L527 2686L527 2672L932 2232L1249 2232L1655 2672L1655 2686L1292 2686L1091 2442Z"  horiz-adv-x="2160" vert-adv-y="2816"  />

      
      <glyph glyph-name="uniE00A" unicode="&#xE00A;" d="M1109-28C1361-28 1543 67 1681 234L1692 234L1717 0L2013 0L2013 1096L1138 1096L1138 770L1586 770C1578 522 1403 355 1111 355C789 355 581 598 581 1026C581 1453 803 1693 1116 1693C1339 1693 1504 1580 1558 1386L1996 1386C1940 1793 1572 2076 1109 2076C568 2076 142 1686 142 1022C142 374 535-28 1109-28ZM937 2246L1238 2246L1543 2701L1149 2701Z"  horiz-adv-x="2160" vert-adv-y="2816"  />

      
      <glyph glyph-name="uniE00B" unicode="&#xE00B;" d="M1109-28C1361-28 1543 67 1681 234L1692 234L1717 0L2013 0L2013 1096L1138 1096L1138 770L1586 770C1578 522 1403 355 1111 355C789 355 581 598 581 1026C581 1453 803 1693 1116 1693C1339 1693 1504 1580 1558 1386L1996 1386C1940 1793 1572 2076 1109 2076C568 2076 142 1686 142 1022C142 374 535-28 1109-28ZM1577 2560L603 2560L603 2329L1577 2329Z"  horiz-adv-x="2160" vert-adv-y="2816"  />

      
      <glyph glyph-name="uni48" unicode="&#x48;" d="M178 0L611 0L611 846L1490 846L1490 0L1922 0L1922 2048L1490 2048L1490 1203L611 1203L611 2048L178 2048Z"  horiz-adv-x="2101" vert-adv-y="2816"  />

      
      <glyph glyph-name="uni1E28" unicode="&#x1E28;" d="M178 0L299 0L255-197C394-214 458-253 455-335C452-420 351-460 183-460L187-650C522-650 716-523 715-324C714-184 617-102 480-81L495 0L611 0L611 846L1490 846L1490 0L1922 0L1922 2048L1490 2048L1490 1203L611 1203L611 2048L178 2048Z"  horiz-adv-x="2101" vert-adv-y="2816"  />

      
      <glyph glyph-name="uni0124" unicode="&#x0124;" d="M178 0L611 0L611 846L1490 846L1490 0L1922 0L1922 2048L1490 2048L1490 1203L611 1203L611 2048L178 2048ZM854 2232L1055 2476L1256 2232L1619 2232L1619 2246L1213 2686L896 2686L491 2246L491 2232Z"  horiz-adv-x="2101" vert-adv-y="2816"  />

      
      <glyph glyph-name="uni021E" unicode="&#x021E;" d="M178 0L611 0L611 846L1490 846L1490 0L1922 0L1922 2048L1490 2048L1490 1203L611 1203L611 2048L178 2048ZM854 2688L491 2688L491 2674L896 2234L1213 2234L1619 2674L1619 2688L1256 2688L1055 2444Z"  horiz-adv-x="2101" vert-adv-y="2816"  />

      
      <glyph glyph-name="uni1E22" unicode="&#x1E22;" d="M178 0L611 0L611 846L1490 846L1490 0L1922 0L1922 2048L1490 2048L1490 1203L611 1203L611 2048L178 2048ZM1054 2248C1181 2248 1285 2345 1285 2464C1285 2582 1181 2679 1054 2679C928 2679 824 2582 824 2464C824 2345 928 2248 1054 2248Z"  horiz-adv-x="2101" vert-adv-y="2816"  />

      
      <glyph glyph-name="uni1E24" unicode="&#x1E24;" d="M178 0L611 0L611 846L1490 846L1490 0L1922 0L1922 2048L1490 2048L1490 1203L611 1203L611 2048L178 2048ZM1049-576C1176-576 1280-479 1280-360C1280-242 1176-145 1049-145C923-145 819-242 819-360C819-479 923-576 1049-576Z"  horiz-adv-x="2101" vert-adv-y="2816"  />

      
      <glyph glyph-name="uni1E26" unicode="&#x1E26;" d="M178 0L611 0L611 846L1490 846L1490 0L1922 0L1922 2048L1490 2048L1490 1203L611 1203L611 2048L178 2048ZM750 2260C866 2260 958 2353 958 2464C958 2577 866 2667 750 2667C635 2667 540 2577 540 2464C540 2353 635 2260 750 2260ZM1362 2260C1478 2260 1570 2353 1570 2464C1570 2577 1478 2667 1362 2667C1247 2667 1152 2577 1152 2464C1152 2353 1247 2260 1362 2260Z"  horiz-adv-x="2101" vert-adv-y="2816"  />

      
      <glyph glyph-name="uni1E2A" unicode="&#x1E2A;" d="M178 0L611 0L611 846L1490 846L1490 0L1922 0L1922 2048L1490 2048L1490 1203L611 1203L611 2048L178 2048ZM1252-113C1250-203 1192-294 1051-294C906-294 850-207 852-113L557-113C556-359 752-528 1050-528C1356-528 1545-352 1546-113Z"  horiz-adv-x="2101" vert-adv-y="2816"  />

      
      <glyph glyph-name="uni0126" unicode="&#x0126;" d="M2182 1693L2012 1693L2012 2048L1580 2048L1580 1693L701 1693L701 2048L268 2048L268 1693L100 1693L100 1451L268 1451L268 0L701 0L701 846L1580 846L1580 0L2012 0L2012 1451L2182 1451ZM1580 1451L1580 1203L701 1203L701 1451Z"  horiz-adv-x="2282" vert-adv-y="2816"  />

      
      <glyph glyph-name="uni04C7" unicode="&#x04C7;" d="M178 0L611 0L611 846L1490 846L1490-74C1490-224 1364-258 1238-258C1204-258 1147-252 1117-250L1117-595C1137-600 1210-607 1274-607C1849-607 1922-291 1922-99L1922 2048L1490 2048L1490 1203L611 1203L611 2048L178 2048Z"  horiz-adv-x="2101" vert-adv-y="2816"  />

      
      <glyph glyph-name="uni04A2" unicode="&#x04A2;" d="M178 0L611 0L611 846L1490 846L1490 0L1913 0L1913-494L2327-494L2327 294L1922 294L1922 2048L1490 2048L1490 1203L611 1203L611 2048L178 2048Z"  horiz-adv-x="2405" vert-adv-y="2816"  />

      
      <glyph glyph-name="uni04C9" unicode="&#x04C9;" d="M178 0L611 0L611 846L1490 846L1490 0L1922 0L1922-31C1923-206 1864-320 1806-430C1797-449 1787-467 1778-486L2005-586C2157-446 2263-225 2262-6L2262 233L1922 233L1922 2048L1490 2048L1490 1203L611 1203L611 2048L178 2048Z"  horiz-adv-x="2340" vert-adv-y="2816"  />

      
      <glyph glyph-name="uni04A4" unicode="&#x04A4;" d="M2734 2048L1490 2048L1490 1203L611 1203L611 2048L178 2048L178 0L611 0L611 846L1490 846L1490 0L1922 0L1922 1691L2734 1691Z"  horiz-adv-x="2834" vert-adv-y="2816"  />

      
      <glyph glyph-name="uni01F6" unicode="&#x01F6;" d="M2243-28C2701-28 2992 232 2992 689L2992 1495L2559 1495L2559 689C2559 458 2444 337 2243 337C2042 337 1922 458 1922 689L1922 2048L1490 2048L1490 1203L611 1203L611 2048L178 2048L178 0L611 0L611 846L1490 846L1490 689C1490 235 1783-28 2243-28Z"  horiz-adv-x="3162" vert-adv-y="2816"  />

      
      <glyph glyph-name="uni0397" unicode="&#x0397;" d="M178 0L611 0L611 846L1490 846L1490 0L1922 0L1922 2048L1490 2048L1490 1203L611 1203L611 2048L178 2048Z"  horiz-adv-x="2101" vert-adv-y="2816"  />

      
      <glyph glyph-name="uni0389" unicode="&#x0389;" d="M692 0L1125 0L1125 846L2004 846L2004 0L2436 0L2436 2048L2004 2048L2004 1203L1125 1203L1125 2048L692 2048ZM173 1720L424 1720L661 2195L280 2195Z"  horiz-adv-x="2615" vert-adv-y="2816"  />

      
      <glyph glyph-name="uni1F28" unicode="&#x1F28;" d="M656 0L1089 0L1089 846L1968 846L1968 0L2400 0L2400 2048L1968 2048L1968 1203L1089 1203L1089 2048L656 2048ZM510 2048L269 2048L269 1925C269 1817 242 1734 159 1677L277 1552C412 1616 510 1745 510 1917Z"  horiz-adv-x="2579" vert-adv-y="2816"  />

      
      <glyph glyph-name="uni1F29" unicode="&#x1F29;" d="M620 0L1053 0L1053 846L1932 846L1932 0L2364 0L2364 2048L1932 2048L1932 1203L1053 1203L1053 2048L620 2048ZM169 1917C171 1745 270 1616 402 1552L520 1677C435 1737 414 1829 413 1925L413 2048L169 2048Z"  horiz-adv-x="2542" vert-adv-y="2816"  />

      
      <glyph glyph-name="uni1F2A" unicode="&#x1F2A;" d="M1158 0L1591 0L1591 846L2470 846L2470 0L2902 0L2902 2048L2470 2048L2470 1203L1591 1203L1591 2048L1158 2048ZM538 2048L281 2048L281 1944C281 1814 241 1720 166 1636L277 1552C442 1640 539 1776 538 1936ZM1061 1604L900 2048L602 2048L602 2020L928 1584L1061 1584Z"  horiz-adv-x="3081" vert-adv-y="2816"  />

      
      <glyph glyph-name="uni1F2B" unicode="&#x1F2B;" d="M1076 0L1509 0L1509 846L2388 846L2388 0L2820 0L2820 2048L2388 2048L2388 1203L1509 1203L1509 2048L1076 2048ZM162 1917C160 1745 260 1616 399 1552L517 1677C425 1737 406 1829 407 1925L407 2048L162 2048ZM977 1614L820 2048L518 2048L518 2020L844 1582L977 1582Z"  horiz-adv-x="2998" vert-adv-y="2816"  />

      
      <glyph glyph-name="uni1F2C" unicode="&#x1F2C;" d="M1104 0L1537 0L1537 846L2416 846L2416 0L2848 0L2848 2048L2416 2048L2416 1203L1537 1203L1537 2048L1104 2048ZM527 2048L281 2048L281 1925C280 1829 259 1737 172 1677L289 1552C427 1616 526 1747 527 1917ZM569 1582L701 1582L1027 2020L1027 2048L729 2048L569 1614Z"  horiz-adv-x="3026" vert-adv-y="2816"  />

      
      <glyph glyph-name="uni1F2D" unicode="&#x1F2D;" d="M1142 0L1575 0L1575 846L2454 846L2454 0L2886 0L2886 2048L2454 2048L2454 1203L1575 1203L1575 2048L1142 2048ZM402 1552L519 1677C438 1734 413 1817 412 1925L412 2048L169 2048L169 1917C169 1740 273 1614 402 1552ZM598 1582L726 1582L1054 2020L1054 2048L752 2048L598 1614Z"  horiz-adv-x="3065" vert-adv-y="2816"  />

      
      <glyph glyph-name="uni1F2E" unicode="&#x1F2E;" d="M910 0L1343 0L1343 846L2222 846L2222 0L2654 0L2654 2048L2222 2048L2222 1203L1343 1203L1343 2048L910 2048ZM817 2389C817 2323 775 2271 722 2271C606 2271 513 2363 392 2363C256 2363 161 2242 161 2110L334 2061C334 2126 372 2181 428 2181C550 2181 610 2088 758 2088C894 2088 990 2204 990 2336ZM712 2018L487 2018L487 1913C487 1838 472 1757 392 1710L505 1608C624 1662 712 1770 712 1907Z"  horiz-adv-x="2833" vert-adv-y="2816"  />

      
      <glyph glyph-name="uni1F2F" unicode="&#x1F2F;" d="M948 0L1381 0L1381 846L2260 846L2260 0L2692 0L2692 2048L2260 2048L2260 1203L1381 1203L1381 2048L948 2048ZM817 2389C817 2323 775 2271 722 2271C606 2271 513 2363 392 2363C256 2363 161 2242 161 2110L334 2061C334 2126 372 2181 428 2181C550 2181 610 2088 758 2088C894 2088 990 2204 990 2336ZM484 1907C484 1765 577 1659 687 1608L804 1710C724 1757 709 1838 709 1913L709 2018L484 2018Z"  horiz-adv-x="2871" vert-adv-y="2816"  />

      
      <glyph glyph-name="uni1FCA" unicode="&#x1FCA;" d="M730 0L1163 0L1163 846L2042 846L2042 0L2474 0L2474 2048L2042 2048L2042 1203L1163 1203L1163 2048L730 2048ZM492 1580L620 1580L620 1618L464 2048L166 2048L166 2020Z"  horiz-adv-x="2653" vert-adv-y="2816"  />

      
      <glyph glyph-name="uni1FCB" unicode="&#x1FCB;" d="M698 0L1131 0L1131 846L2010 846L2010 0L2442 0L2442 2048L2010 2048L2010 1203L1131 1203L1131 2048L698 2048ZM188 1728L400 1728L725 2168L725 2196L344 2196L188 1766Z"  horiz-adv-x="2621" vert-adv-y="2816"  />

      
      <glyph glyph-name="uni041D" unicode="&#x041D;" d="M178 0L611 0L611 846L1490 846L1490 0L1922 0L1922 2048L1490 2048L1490 1203L611 1203L611 2048L178 2048Z"  horiz-adv-x="2101" vert-adv-y="2816"  />

      
      <glyph glyph-name="uni1F98" unicode="&#x1F98;" d="M592 0L1025 0L1025 846L1904 846L1904 0L2336 0L2336 2048L1904 2048L1904 1203L1025 1203L1025 2048L592 2048ZM1601-680C1656-680 1695-672 1732-662L1732-498C1718-498 1697-502 1669-502C1613-502 1594-476 1594-420L1594-132L1340-132L1340-422C1340-604 1456-680 1601-680ZM446 2048L205 2048L205 1925C205 1817 178 1734 95 1677L213 1552C348 1616 446 1745 446 1917Z"  horiz-adv-x="2515" vert-adv-y="2816"  />

      
      <glyph glyph-name="uni1F99" unicode="&#x1F99;" d="M620 0L1053 0L1053 846L1932 846L1932 0L2364 0L2364 2048L1932 2048L1932 1203L1053 1203L1053 2048L620 2048ZM1629-680C1684-680 1723-672 1760-662L1760-498C1746-498 1725-502 1697-502C1641-502 1622-476 1622-420L1622-132L1368-132L1368-422C1368-604 1484-680 1629-680ZM169 1917C171 1745 270 1616 402 1552L520 1677C435 1737 414 1829 413 1925L413 2048L169 2048Z"  horiz-adv-x="2542" vert-adv-y="2816"  />

      
      <glyph glyph-name="uni1F9A" unicode="&#x1F9A;" d="M1158 0L1591 0L1591 846L2470 846L2470 0L2902 0L2902 2048L2470 2048L2470 1203L1591 1203L1591 2048L1158 2048ZM2167-680C2222-680 2261-672 2298-662L2298-498C2284-498 2263-502 2235-502C2179-502 2160-476 2160-420L2160-132L1906-132L1906-422C1906-604 2022-680 2167-680ZM538 2048L281 2048L281 1944C281 1814 241 1720 166 1636L277 1552C442 1640 539 1776 538 1936ZM1061 1604L900 2048L602 2048L602 2020L928 1584L1061 1584Z"  horiz-adv-x="3081" vert-adv-y="2816"  />

      
      <glyph glyph-name="uni1F9B" unicode="&#x1F9B;" d="M1076 0L1509 0L1509 846L2388 846L2388 0L2820 0L2820 2048L2388 2048L2388 1203L1509 1203L1509 2048L1076 2048ZM2085-680C2140-680 2179-672 2216-662L2216-498C2202-498 2181-502 2153-502C2097-502 2078-476 2078-420L2078-132L1824-132L1824-422C1824-604 1940-680 2085-680ZM162 1917C160 1745 260 1616 399 1552L517 1677C425 1737 406 1829 407 1925L407 2048L162 2048ZM977 1614L820 2048L518 2048L518 2020L844 1582L977 1582Z"  horiz-adv-x="2998" vert-adv-y="2816"  />

      
      <glyph glyph-name="uni1F9C" unicode="&#x1F9C;" d="M1104 0L1537 0L1537 846L2416 846L2416 0L2848 0L2848 2048L2416 2048L2416 1203L1537 1203L1537 2048L1104 2048ZM2113-680C2168-680 2207-672 2244-662L2244-498C2230-498 2209-502 2181-502C2125-502 2106-476 2106-420L2106-132L1852-132L1852-422C1852-604 1968-680 2113-680ZM527 2048L281 2048L281 1925C280 1829 259 1737 172 1677L289 1552C427 1616 526 1747 527 1917ZM569 1582L701 1582L1027 2020L1027 2048L729 2048L569 1614Z"  horiz-adv-x="3026" vert-adv-y="2816"  />

      
      <glyph glyph-name="uni1F9D" unicode="&#x1F9D;" d="M1142 0L1575 0L1575 846L2454 846L2454 0L2886 0L2886 2048L2454 2048L2454 1203L1575 1203L1575 2048L1142 2048ZM2151-680C2206-680 2245-672 2282-662L2282-498C2268-498 2247-502 2219-502C2163-502 2144-476 2144-420L2144-132L1890-132L1890-422C1890-604 2006-680 2151-680ZM402 1552L519 1677C438 1734 413 1817 412 1925L412 2048L169 2048L169 1917C169 1740 273 1614 402 1552ZM598 1582L726 1582L1054 2020L1054 2048L752 2048L598 1614Z"  horiz-adv-x="3065" vert-adv-y="2816"  />

      
      <glyph glyph-name="uni1F9E" unicode="&#x1F9E;" d="M910 0L1343 0L1343 846L2222 846L2222 0L2654 0L2654 2048L2222 2048L2222 1203L1343 1203L1343 2048L910 2048ZM817 2389C817 2323 775 2271 722 2271C606 2271 513 2363 392 2363C256 2363 161 2242 161 2110L334 2061C334 2126 372 2181 428 2181C550 2181 610 2088 758 2088C894 2088 990 2204 990 2336ZM1919-680C1974-680 2013-672 2050-662L2050-498C2036-498 2015-502 1987-502C1931-502 1912-476 1912-420L1912-132L1658-132L1658-422C1658-604 1774-680 1919-680ZM712 2018L487 2018L487 1913C487 1838 472 1757 392 1710L505 1608C624 1662 712 1770 712 1907Z"  horiz-adv-x="2833" vert-adv-y="2816"  />

      
      <glyph glyph-name="uni1F9F" unicode="&#x1F9F;" d="M948 0L1381 0L1381 846L2260 846L2260 0L2692 0L2692 2048L2260 2048L2260 1203L1381 1203L1381 2048L948 2048ZM817 2389C817 2323 775 2271 722 2271C606 2271 513 2363 392 2363C256 2363 161 2242 161 2110L334 2061C334 2126 372 2181 428 2181C550 2181 610 2088 758 2088C894 2088 990 2204 990 2336ZM1957-680C2012-680 2051-672 2088-662L2088-498C2074-498 2053-502 2025-502C1969-502 1950-476 1950-420L1950-132L1696-132L1696-422C1696-604 1812-680 1957-680ZM484 1907C484 1765 577 1659 687 1608L804 1710C724 1757 709 1838 709 1913L709 2018L484 2018Z"  horiz-adv-x="2871" vert-adv-y="2816"  />

      
      <glyph glyph-name="uni1FCC" unicode="&#x1FCC;" d="M178 0L611 0L611 846L1490 846L1490 0L1922 0L1922 2048L1490 2048L1490 1203L611 1203L611 2048L178 2048ZM1187-680C1242-680 1281-672 1318-662L1318-498C1304-498 1283-502 1255-502C1199-502 1180-476 1180-420L1180-132L926-132L926-422C926-604 1042-680 1187-680Z"  horiz-adv-x="2101" vert-adv-y="2816"  />

      
      <glyph glyph-name="uni49" unicode="&#x49;" d="M611 2048L178 2048L178 0L611 0Z"  horiz-adv-x="790" vert-adv-y="2816"  />

      
      <glyph glyph-name="unicf" unicode="&#xcf;" d="M611 2048L178 2048L178 0L611 0ZM91 2258C207 2258 299 2351 299 2462C299 2575 207 2665 91 2665C-24 2665-119 2575-119 2462C-119 2351-24 2258 91 2258ZM703 2258C819 2258 911 2351 911 2462C911 2575 819 2665 703 2665C588 2665 493 2575 493 2462C493 2351 588 2258 703 2258Z"  horiz-adv-x="790" vert-adv-y="2816"  />

      
      <glyph glyph-name="uni1E2E" unicode="&#x1E2E;" d="M611 2048L178 2048L178 0L611 0ZM232 2696L538 2696L890 3049L508 3049ZM101 2186C213 2186 301 2274 301 2378C301 2485 213 2570 101 2570C-9 2570-100 2485-100 2378C-100 2274-9 2186 101 2186ZM689 2186C801 2186 889 2274 889 2378C889 2485 801 2570 689 2570C579 2570 488 2485 488 2378C488 2274 579 2186 689 2186Z"  horiz-adv-x="790" vert-adv-y="2816"  />

      
      <glyph glyph-name="uni0197" unicode="&#x0197;" d="M611 2048L178 2048L178 1205L-107 1205L-107 954L178 954L178 0L611 0L611 954L891 954L891 1205L611 1205Z"  horiz-adv-x="790" vert-adv-y="2816"  />

      
      <glyph glyph-name="uni1E2C" unicode="&#x1E2C;" d="M611 2048L178 2048L178 0L611 0ZM161-549C161-456 207-397 276-397C329-397 369-426 413-459C469-500 533-548 645-547C826-546 968-405 970-152L737-145C736-237 695-299 618-300C568-300 526-271 480-238C420-197 353-149 249-150C67-151-76-292-76-546Z"  horiz-adv-x="790" vert-adv-y="2816"  />

      
      <glyph glyph-name="unicc" unicode="&#xcc;" d="M611 2048L178 2048L178 0L611 0ZM248 2246L549 2246L336 2701L-57 2701Z"  horiz-adv-x="790" vert-adv-y="2816"  />

      
      <glyph glyph-name="unicd" unicode="&#xcd;" d="M611 2048L178 2048L178 0L611 0ZM243 2246L544 2246L849 2701L455 2701Z"  horiz-adv-x="790" vert-adv-y="2816"  />

      
      <glyph glyph-name="unice" unicode="&#xce;" d="M611 2048L178 2048L178 0L611 0ZM195 2230L396 2474L597 2230L960 2230L960 2244L554 2684L237 2684L-168 2244L-168 2230Z"  horiz-adv-x="790" vert-adv-y="2816"  />

      
      <glyph glyph-name="uni0128" unicode="&#x0128;" d="M849 2048L416 2048L416 0L849 0ZM348 2237C348 2330 394 2389 463 2389C516 2389 556 2360 600 2327C656 2286 720 2238 832 2239C1013 2240 1155 2381 1157 2634L924 2641C923 2549 882 2487 805 2486C755 2486 713 2515 667 2548C607 2589 540 2637 436 2636C254 2635 111 2494 111 2240Z"  horiz-adv-x="1270" vert-adv-y="2816"  />

      
      <glyph glyph-name="uni012A" unicode="&#x012A;" d="M611 2048L178 2048L178 0L611 0ZM883 2560L-91 2560L-91 2329L883 2329Z"  horiz-adv-x="790" vert-adv-y="2816"  />

      
      <glyph glyph-name="uni012C" unicode="&#x012C;" d="M611 2048L178 2048L178 0L611 0ZM594 2584C594 2490 538 2405 396 2405C250 2405 196 2492 197 2584L-98 2584C-98 2342 93 2180 396 2180C699 2180 890 2342 891 2584Z"  horiz-adv-x="790" vert-adv-y="2816"  />

      
      <glyph glyph-name="uni012E" unicode="&#x012E;" d="M611 2048L178 2048L178 34C89-58 57-190 81-310C112-479 239-574 416-574C518-574 595-542 644-514L600-294C573-303 540-318 495-318C431-318 397-282 398-218C397-122 485-59 611 0Z"  horiz-adv-x="790" vert-adv-y="2816"  />

      
      <glyph glyph-name="uni0130" unicode="&#x0130;" d="M611 2048L178 2048L178 0L611 0ZM396 2246C523 2246 627 2343 627 2462C627 2580 523 2677 396 2677C270 2677 166 2580 166 2462C166 2343 270 2246 396 2246Z"  horiz-adv-x="790" vert-adv-y="2816"  />

      
      <glyph glyph-name="uni01CF" unicode="&#x01CF;" d="M611 2048L178 2048L178 0L611 0ZM195 2686L-168 2686L-168 2672L237 2232L554 2232L960 2672L960 2686L597 2686L396 2442Z"  horiz-adv-x="790" vert-adv-y="2816"  />

      
      <glyph glyph-name="uni0208" unicode="&#x0208;" d="M611 2048L178 2048L178 0L611 0ZM230 2246L198 2515L-183 2701L-120 2432ZM719 2246L740 2515L412 2701L409 2432Z"  horiz-adv-x="790" vert-adv-y="2816"  />

      
      <glyph glyph-name="uni020A" unicode="&#x020A;" d="M611 2048L178 2048L178 0L611 0ZM-102 2295L195 2295C194 2387 248 2473 393 2473C535 2473 591 2388 592 2295L889 2295C888 2537 696 2710 393 2710C88 2710-103 2537-102 2295Z"  horiz-adv-x="790" vert-adv-y="2816"  />

      
      <glyph glyph-name="uni1EC8" unicode="&#x1EC8;" d="M611 2048L178 2048L178 0L611 0ZM553 2268L553 2356C660 2372 767 2431 766 2552C767 2722 577 2824 221 2824L210 2631C324 2631 411 2611 410 2539C411 2487 356 2454 215 2448L237 2268Z"  horiz-adv-x="790" vert-adv-y="2816"  />

      
      <glyph glyph-name="uni1ECA" unicode="&#x1ECA;" d="M611 2048L178 2048L178 0L611 0ZM393-576C520-576 624-479 624-360C624-242 520-145 393-145C267-145 163-242 163-360C163-479 267-576 393-576Z"  horiz-adv-x="790" vert-adv-y="2816"  />

      
      <glyph glyph-name="uni0399" unicode="&#x0399;" d="M611 2048L178 2048L178 0L611 0Z"  horiz-adv-x="790" vert-adv-y="2816"  />

      
      <glyph glyph-name="uni038A" unicode="&#x038A;" d="M910 2048L477 2048L477 0L910 0ZM6 1720L257 1720L494 2195L113 2195Z"  horiz-adv-x="1089" vert-adv-y="2816"  />

      
      <glyph glyph-name="uni03AA" unicode="&#x03AA;" d="M611 2048L178 2048L178 0L611 0ZM91 2258C207 2258 299 2351 299 2462C299 2575 207 2665 91 2665C-24 2665-119 2575-119 2462C-119 2351-24 2258 91 2258ZM703 2258C819 2258 911 2351 911 2462C911 2575 819 2665 703 2665C588 2665 493 2575 493 2462C493 2351 588 2258 703 2258Z"  horiz-adv-x="790" vert-adv-y="2816"  />

      
      <glyph glyph-name="uni1F38" unicode="&#x1F38;" d="M1041 2048L608 2048L608 0L1041 0ZM510 2048L269 2048L269 1925C269 1817 242 1734 159 1677L277 1552C412 1616 510 1745 510 1917Z"  horiz-adv-x="1213" vert-adv-y="2816"  />

      
      <glyph glyph-name="uni1F39" unicode="&#x1F39;" d="M1005 2048L572 2048L572 0L1005 0ZM169 1917C171 1745 270 1616 402 1552L520 1677C435 1737 414 1829 413 1925L413 2048L169 2048Z"  horiz-adv-x="1176" vert-adv-y="2816"  />

      
      <glyph glyph-name="uni1F3A" unicode="&#x1F3A;" d="M1543 2048L1110 2048L1110 0L1543 0ZM538 2048L281 2048L281 1944C281 1814 241 1720 166 1636L277 1552C442 1640 539 1776 538 1936ZM1061 1604L900 2048L602 2048L602 2020L928 1584L1061 1584Z"  horiz-adv-x="1714" vert-adv-y="2816"  />

      
      <glyph glyph-name="uni1F3B" unicode="&#x1F3B;" d="M1461 2048L1028 2048L1028 0L1461 0ZM162 1917C160 1745 260 1616 399 1552L517 1677C425 1737 406 1829 407 1925L407 2048L162 2048ZM977 1614L820 2048L518 2048L518 2020L844 1582L977 1582Z"  horiz-adv-x="1632" vert-adv-y="2816"  />

      
      <glyph glyph-name="uni1F3C" unicode="&#x1F3C;" d="M1489 2048L1056 2048L1056 0L1489 0ZM527 2048L281 2048L281 1925C280 1829 259 1737 172 1677L289 1552C427 1616 526 1747 527 1917ZM569 1582L701 1582L1027 2020L1027 2048L729 2048L569 1614Z"  horiz-adv-x="1660" vert-adv-y="2816"  />

      
      <glyph glyph-name="uni1F3D" unicode="&#x1F3D;" d="M1527 2048L1094 2048L1094 0L1527 0ZM402 1552L519 1677C438 1734 413 1817 412 1925L412 2048L169 2048L169 1917C169 1740 273 1614 402 1552ZM598 1582L726 1582L1054 2020L1054 2048L752 2048L598 1614Z"  horiz-adv-x="1698" vert-adv-y="2816"  />

      
      <glyph glyph-name="uni1F3E" unicode="&#x1F3E;" d="M1295 2048L862 2048L862 0L1295 0ZM817 2389C817 2323 775 2271 722 2271C606 2271 513 2363 392 2363C256 2363 161 2242 161 2110L334 2061C334 2126 372 2181 428 2181C550 2181 610 2088 758 2088C894 2088 990 2204 990 2336ZM712 2018L487 2018L487 1913C487 1838 472 1757 392 1710L505 1608C624 1662 712 1770 712 1907Z"  horiz-adv-x="1466" vert-adv-y="2816"  />

      
      <glyph glyph-name="uni1F3F" unicode="&#x1F3F;" d="M1333 2048L900 2048L900 0L1333 0ZM817 2389C817 2323 775 2271 722 2271C606 2271 513 2363 392 2363C256 2363 161 2242 161 2110L334 2061C334 2126 372 2181 428 2181C550 2181 610 2088 758 2088C894 2088 990 2204 990 2336ZM484 1907C484 1765 577 1659 687 1608L804 1710C724 1757 709 1838 709 1913L709 2018L484 2018Z"  horiz-adv-x="1505" vert-adv-y="2816"  />

      
      <glyph glyph-name="uni1FD8" unicode="&#x1FD8;" d="M611 2048L178 2048L178 0L611 0ZM594 2584C594 2490 538 2405 396 2405C250 2405 196 2492 197 2584L-98 2584C-98 2342 93 2180 396 2180C699 2180 890 2342 891 2584Z"  horiz-adv-x="790" vert-adv-y="2816"  />

      
      <glyph glyph-name="uni1FD9" unicode="&#x1FD9;" d="M611 2048L178 2048L178 0L611 0ZM883 2560L-91 2560L-91 2329L883 2329Z"  horiz-adv-x="790" vert-adv-y="2816"  />

      
      <glyph glyph-name="uni1FDA" unicode="&#x1FDA;" d="M1115 2048L682 2048L682 0L1115 0ZM492 1580L620 1580L620 1618L464 2048L166 2048L166 2020Z"  horiz-adv-x="1286" vert-adv-y="2816"  />

      
      <glyph glyph-name="uni1FDB" unicode="&#x1FDB;" d="M1083 2048L650 2048L650 0L1083 0ZM188 1728L400 1728L725 2168L725 2196L344 2196L188 1766Z"  horiz-adv-x="1254" vert-adv-y="2816"  />

      
      <glyph glyph-name="uni0406" unicode="&#x0406;" d="M611 2048L178 2048L178 0L611 0Z"  horiz-adv-x="790" vert-adv-y="2816"  />

      
      <glyph glyph-name="uni0407" unicode="&#x0407;" d="M611 2048L178 2048L178 0L611 0ZM91 2258C207 2258 299 2351 299 2462C299 2575 207 2665 91 2665C-24 2665-119 2575-119 2462C-119 2351-24 2258 91 2258ZM703 2258C819 2258 911 2351 911 2462C911 2575 819 2665 703 2665C588 2665 493 2575 493 2462C493 2351 588 2258 703 2258Z"  horiz-adv-x="790" vert-adv-y="2816"  />

      
      <glyph glyph-name="uniE00C" unicode="&#xE00C;" d="M100 1691L459 1691L459 357L100 357L100 0L1251 0L1251 357L892 357L892 1691L1251 1691L1251 2048L100 2048Z"  horiz-adv-x="1351" vert-adv-y="2816"  />

      
      <glyph glyph-name="uniE00D" unicode="&#xE00D;" d="M100 1691L459 1691L459 357L100 357L100 0L1251 0L1251 357L892 357L892 1691L1251 1691L1251 2048L100 2048ZM372 2258C488 2258 580 2351 580 2462C580 2575 488 2665 372 2665C257 2665 162 2575 162 2462C162 2351 257 2258 372 2258ZM984 2258C1100 2258 1192 2351 1192 2462C1192 2575 1100 2665 984 2665C869 2665 774 2575 774 2462C774 2351 869 2258 984 2258Z"  horiz-adv-x="1351" vert-adv-y="2816"  />

      
      <glyph glyph-name="uniE00E" unicode="&#xE00E;" d="M100 1691L459 1691L459 357L100 357L100 0L1251 0L1251 357L892 357L892 1691L1251 1691L1251 2048L100 2048ZM513 2696L819 2696L1171 3049L789 3049ZM382 2186C494 2186 582 2274 582 2378C582 2485 494 2570 382 2570C272 2570 181 2485 181 2378C181 2274 272 2186 382 2186ZM970 2186C1082 2186 1170 2274 1170 2378C1170 2485 1082 2570 970 2570C860 2570 769 2485 769 2378C769 2274 860 2186 970 2186Z"  horiz-adv-x="1351" vert-adv-y="2816"  />

      
      <glyph glyph-name="uniE00F" unicode="&#xE00F;" d="M100 1691L459 1691L459 1205L174 1205L174 954L459 954L459 357L100 357L100 0L1251 0L1251 357L892 357L892 954L1172 954L1172 1205L892 1205L892 1691L1251 1691L1251 2048L100 2048Z"  horiz-adv-x="1351" vert-adv-y="2816"  />

      
      <glyph glyph-name="uniE010" unicode="&#xE010;" d="M100 1691L459 1691L459 357L100 357L100 0L1251 0L1251 357L892 357L892 1691L1251 1691L1251 2048L100 2048ZM442-549C442-456 488-397 557-397C610-397 650-426 694-459C750-500 814-548 926-547C1107-546 1249-405 1251-152L1018-145C1017-237 976-299 899-300C849-300 807-271 761-238C701-197 634-149 530-150C348-151 205-292 205-546Z"  horiz-adv-x="1351" vert-adv-y="2816"  />

      
      <glyph glyph-name="uniE011" unicode="&#xE011;" d="M100 1691L459 1691L459 357L100 357L100 0L1251 0L1251 357L892 357L892 1691L1251 1691L1251 2048L100 2048ZM529 2246L830 2246L617 2701L224 2701Z"  horiz-adv-x="1351" vert-adv-y="2816"  />

      
      <glyph glyph-name="uniE012" unicode="&#xE012;" d="M100 1691L459 1691L459 357L100 357L100 0L1251 0L1251 357L892 357L892 1691L1251 1691L1251 2048L100 2048ZM524 2246L825 2246L1130 2701L736 2701Z"  horiz-adv-x="1351" vert-adv-y="2816"  />

      
      <glyph glyph-name="uniE013" unicode="&#xE013;" d="M100 1691L459 1691L459 357L100 357L100 0L1251 0L1251 357L892 357L892 1691L1251 1691L1251 2048L100 2048ZM476 2230L677 2474L878 2230L1241 2230L1241 2244L835 2684L518 2684L113 2244L113 2230Z"  horiz-adv-x="1351" vert-adv-y="2816"  />

      
      <glyph glyph-name="uniE014" unicode="&#xE014;" d="M100 1691L459 1691L459 357L100 357L100 0L1251 0L1251 357L892 357L892 1691L1251 1691L1251 2048L100 2048ZM391 2237C391 2330 437 2389 506 2389C559 2389 599 2360 643 2327C699 2286 763 2238 875 2239C1056 2240 1198 2381 1200 2634L967 2641C966 2549 925 2487 848 2486C798 2486 756 2515 710 2548C650 2589 583 2637 479 2636C297 2635 154 2494 154 2240Z"  horiz-adv-x="1351" vert-adv-y="2816"  />

      
      <glyph glyph-name="uniE015" unicode="&#xE015;" d="M100 1691L459 1691L459 357L100 357L100 0L1251 0L1251 357L892 357L892 1691L1251 1691L1251 2048L100 2048ZM1164 2560L190 2560L190 2329L1164 2329Z"  horiz-adv-x="1351" vert-adv-y="2816"  />

      
      <glyph glyph-name="uniE016" unicode="&#xE016;" d="M100 1691L459 1691L459 357L100 357L100 0L1251 0L1251 357L892 357L892 1691L1251 1691L1251 2048L100 2048ZM875 2584C875 2490 819 2405 677 2405C531 2405 477 2492 478 2584L183 2584C183 2342 374 2180 677 2180C980 2180 1171 2342 1172 2584Z"  horiz-adv-x="1351" vert-adv-y="2816"  />

      
      <glyph glyph-name="uniE017" unicode="&#xE017;" d="M100 1691L459 1691L459 357L100 357L100 0L789 0C722-89 700-204 721-310C752-479 879-574 1056-574C1158-574 1235-542 1284-514L1240-294C1213-303 1180-318 1135-318C1071-318 1037-282 1038-218C1037-122 1125-59 1251 0L1251 357L892 357L892 1691L1251 1691L1251 2048L100 2048Z"  horiz-adv-x="1351" vert-adv-y="2816"  />

      
      <glyph glyph-name="uniE018" unicode="&#xE018;" d="M100 1691L459 1691L459 357L100 357L100 0L1251 0L1251 357L892 357L892 1691L1251 1691L1251 2048L100 2048ZM676 2246C803 2246 907 2343 907 2462C907 2580 803 2677 676 2677C550 2677 446 2580 446 2462C446 2343 550 2246 676 2246Z"  horiz-adv-x="1351" vert-adv-y="2816"  />

      
      <glyph glyph-name="uniE019" unicode="&#xE019;" d="M100 1691L459 1691L459 357L100 357L100 0L1251 0L1251 357L892 357L892 1691L1251 1691L1251 2048L100 2048ZM476 2686L113 2686L113 2672L518 2232L835 2232L1241 2672L1241 2686L878 2686L677 2442Z"  horiz-adv-x="1351" vert-adv-y="2816"  />

      
      <glyph glyph-name="uniE01A" unicode="&#xE01A;" d="M100 1691L459 1691L459 357L100 357L100 0L1251 0L1251 357L892 357L892 1691L1251 1691L1251 2048L100 2048ZM511 2246L479 2515L98 2701L161 2432ZM1000 2246L1021 2515L693 2701L690 2432Z"  horiz-adv-x="1351" vert-adv-y="2816"  />

      
      <glyph glyph-name="uniE01B" unicode="&#xE01B;" d="M100 1691L459 1691L459 357L100 357L100 0L1251 0L1251 357L892 357L892 1691L1251 1691L1251 2048L100 2048ZM179 2295L476 2295C475 2387 529 2473 674 2473C816 2473 872 2388 873 2295L1170 2295C1169 2537 977 2710 674 2710C369 2710 178 2537 179 2295Z"  horiz-adv-x="1351" vert-adv-y="2816"  />

      
      <glyph glyph-name="uniE01C" unicode="&#xE01C;" d="M100 1691L459 1691L459 357L100 357L100 0L1251 0L1251 357L892 357L892 1691L1251 1691L1251 2048L100 2048ZM834 2268L834 2356C941 2372 1048 2431 1047 2552C1048 2722 858 2824 502 2824L491 2631C605 2631 692 2611 691 2539C692 2487 637 2454 496 2448L518 2268Z"  horiz-adv-x="1351" vert-adv-y="2816"  />

      
      <glyph glyph-name="uniE01D" unicode="&#xE01D;" d="M100 1691L459 1691L459 357L100 357L100 0L1251 0L1251 357L892 357L892 1691L1251 1691L1251 2048L100 2048ZM674-576C801-576 905-479 905-360C905-242 801-145 674-145C548-145 444-242 444-360C444-479 548-576 674-576Z"  horiz-adv-x="1351" vert-adv-y="2816"  />

      
      <glyph glyph-name="uniE01E" unicode="&#xE01E;" d="M550 1691L909 1691L909 357L550 357L550 0L1701 0L1701 357L1342 357L1342 1691L1701 1691L1701 2048L550 2048ZM451 2048L210 2048L210 1925C210 1817 183 1734 100 1677L218 1552C353 1616 451 1745 451 1917Z"  horiz-adv-x="1801" vert-adv-y="2816"  />

      
      <glyph glyph-name="uniE01F" unicode="&#xE01F;" d="M503 1691L862 1691L862 357L503 357L503 0L1654 0L1654 357L1295 357L1295 1691L1654 1691L1654 2048L503 2048ZM100 1917C102 1745 201 1616 333 1552L451 1677C366 1737 345 1829 344 1925L344 2048L100 2048Z"  horiz-adv-x="1754" vert-adv-y="2816"  />

      
      <glyph glyph-name="uniE020" unicode="&#xE020;" d="M1044 1691L1403 1691L1403 357L1044 357L1044 0L2195 0L2195 357L1836 357L1836 1691L2195 1691L2195 2048L1044 2048ZM471 2048L214 2048L214 1944C214 1814 174 1720 99 1636L210 1552C375 1640 472 1776 471 1936ZM994 1604L833 2048L535 2048L535 2020L861 1584L994 1584Z"  horiz-adv-x="2295" vert-adv-y="2816"  />

      
      <glyph glyph-name="uniE021" unicode="&#xE021;" d="M966 1691L1325 1691L1325 357L966 357L966 0L2117 0L2117 357L1758 357L1758 1691L2117 1691L2117 2048L966 2048ZM100 1917C98 1745 198 1616 337 1552L455 1677C363 1737 344 1829 345 1925L345 2048L100 2048ZM915 1614L758 2048L456 2048L456 2020L782 1582L915 1582Z"  horiz-adv-x="2218" vert-adv-y="2816"  />

      
      <glyph glyph-name="uniE022" unicode="&#xE022;" d="M985 1691L1344 1691L1344 357L985 357L985 0L2136 0L2136 357L1777 357L1777 1691L2136 1691L2136 2048L985 2048ZM455 2048L209 2048L209 1925C208 1829 187 1737 100 1677L217 1552C355 1616 454 1747 455 1917ZM497 1582L629 1582L955 2020L955 2048L657 2048L497 1614Z"  horiz-adv-x="2236" vert-adv-y="2816"  />

      
      <glyph glyph-name="uniE023" unicode="&#xE023;" d="M1026 1691L1385 1691L1385 357L1026 357L1026 0L2177 0L2177 357L1818 357L1818 1691L2177 1691L2177 2048L1026 2048ZM333 1552L450 1677C369 1734 344 1817 343 1925L343 2048L100 2048L100 1917C100 1740 204 1614 333 1552ZM529 1582L657 1582L985 2020L985 2048L683 2048L529 1614Z"  horiz-adv-x="2277" vert-adv-y="2816"  />

      
      <glyph glyph-name="uniE024" unicode="&#xE024;" d="M801 1691L1160 1691L1160 357L801 357L801 0L1952 0L1952 357L1593 357L1593 1691L1952 1691L1952 2048L801 2048ZM756 2389C756 2323 714 2271 661 2271C545 2271 452 2363 331 2363C195 2363 100 2242 100 2110L273 2061C273 2126 311 2181 367 2181C489 2181 549 2088 697 2088C833 2088 929 2204 929 2336ZM651 2018L426 2018L426 1913C426 1838 411 1757 331 1710L444 1608C563 1662 651 1770 651 1907Z"  horiz-adv-x="2052" vert-adv-y="2816"  />

      
      <glyph glyph-name="uniE025" unicode="&#xE025;" d="M839 1691L1198 1691L1198 357L839 357L839 0L1990 0L1990 357L1631 357L1631 1691L1990 1691L1990 2048L839 2048ZM756 2389C756 2323 714 2271 661 2271C545 2271 452 2363 331 2363C195 2363 100 2242 100 2110L273 2061C273 2126 311 2181 367 2181C489 2181 549 2088 697 2088C833 2088 929 2204 929 2336ZM423 1907C423 1765 516 1659 626 1608L743 1710C663 1757 648 1838 648 1913L648 2018L423 2018Z"  horiz-adv-x="2090" vert-adv-y="2816"  />

      
      <glyph glyph-name="uniE026" unicode="&#xE026;" d="M100 1691L459 1691L459 357L100 357L100 0L1251 0L1251 357L892 357L892 1691L1251 1691L1251 2048L100 2048ZM875 2584C875 2490 819 2405 677 2405C531 2405 477 2492 478 2584L183 2584C183 2342 374 2180 677 2180C980 2180 1171 2342 1172 2584Z"  horiz-adv-x="1351" vert-adv-y="2816"  />

      
      <glyph glyph-name="uniE027" unicode="&#xE027;" d="M100 1691L459 1691L459 357L100 357L100 0L1251 0L1251 357L892 357L892 1691L1251 1691L1251 2048L100 2048ZM1164 2560L190 2560L190 2329L1164 2329Z"  horiz-adv-x="1351" vert-adv-y="2816"  />

      
      <glyph glyph-name="uniE028" unicode="&#xE028;" d="M616 1691L975 1691L975 357L616 357L616 0L1767 0L1767 357L1408 357L1408 1691L1767 1691L1767 2048L616 2048ZM426 1580L554 1580L554 1618L398 2048L100 2048L100 2020Z"  horiz-adv-x="1867" vert-adv-y="2816"  />

      
      <glyph glyph-name="uniE029" unicode="&#xE029;" d="M584 1691L943 1691L943 357L584 357L584 0L1735 0L1735 357L1376 357L1376 1691L1735 1691L1735 2048L584 2048ZM122 1728L334 1728L659 2168L659 2196L278 2196L122 1766Z"  horiz-adv-x="1835" vert-adv-y="2816"  />

      
      <glyph glyph-name="uniE02A" unicode="&#xE02A;" d="M100 1691L459 1691L459 357L100 357L100 0L1251 0L1251 357L892 357L892 1691L1251 1691L1251 2048L100 2048Z"  horiz-adv-x="1351" vert-adv-y="2816"  />

      
      <glyph glyph-name="uniE02B" unicode="&#xE02B;" d="M100 1691L459 1691L459 357L100 357L100 0L1251 0L1251 357L892 357L892 1691L1251 1691L1251 2048L100 2048ZM372 2258C488 2258 580 2351 580 2462C580 2575 488 2665 372 2665C257 2665 162 2575 162 2462C162 2351 257 2258 372 2258ZM984 2258C1100 2258 1192 2351 1192 2462C1192 2575 1100 2665 984 2665C869 2665 774 2575 774 2462C774 2351 869 2258 984 2258Z"  horiz-adv-x="1351" vert-adv-y="2816"  />

      
      <glyph glyph-name="uni4a" unicode="&#x4a;" d="M998 2048L998 620C997 423 909 319 749 319C598 319 500 413 497 576L66 576C64 167 356-28 727-28C1142-28 1425 223 1426 620L1426 2048Z"  horiz-adv-x="1605" vert-adv-y="2816"  />

      
      <glyph glyph-name="uni0134" unicode="&#x0134;" d="M998 2048L998 620C997 423 909 319 749 319C598 319 500 413 497 576L66 576C64 167 356-28 727-28C1142-28 1425 223 1426 620L1426 2048ZM1010 2230L1211 2474L1412 2230L1775 2230L1775 2244L1369 2684L1052 2684L647 2244L647 2230Z"  horiz-adv-x="1605" vert-adv-y="2816"  />

      
      <glyph glyph-name="uni0248" unicode="&#x0248;" d="M998 2048L998 1348L708 1348L708 1097L998 1097L998 620C997 423 909 319 749 319C598 319 500 413 497 576L66 576C64 167 356-28 727-28C1142-28 1425 223 1426 620L1426 1097L1706 1097L1706 1348L1426 1348L1426 2048Z"  horiz-adv-x="1605" vert-adv-y="2816"  />

      
      <glyph glyph-name="uni037F" unicode="&#x037F;" d="M998 2048L998 620C997 423 909 319 749 319C598 319 500 413 497 576L66 576C64 167 356-28 727-28C1142-28 1425 223 1426 620L1426 2048Z"  horiz-adv-x="1605" vert-adv-y="2816"  />

      
      <glyph glyph-name="uni0408" unicode="&#x0408;" d="M998 2048L998 620C997 423 909 319 749 319C598 319 500 413 497 576L66 576C64 167 356-28 727-28C1142-28 1425 223 1426 620L1426 2048Z"  horiz-adv-x="1605" vert-adv-y="2816"  />

      
      <glyph glyph-name="uni4b" unicode="&#x4b;" d="M178 0L611 0L611 582L824 842L1385 0L1903 0L1134 1131L1894 2048L1375 2048L638 1145L611 1145L611 2048L178 2048Z"  horiz-adv-x="1942" vert-adv-y="2816"  />

      
      <glyph glyph-name="uni0136" unicode="&#x0136;" d="M178 0L611 0L611 582L824 842L1385 0L1903 0L1134 1131L1894 2048L1375 2048L638 1145L611 1145L611 2048L178 2048ZM645-654L944-654L1163-160L769-160Z"  horiz-adv-x="1942" vert-adv-y="2816"  />

      
      <glyph glyph-name="uni01E8" unicode="&#x01E8;" d="M178 0L611 0L611 582L824 842L1385 0L1903 0L1134 1131L1894 2048L1375 2048L638 1145L611 1145L611 2048L178 2048ZM768 2686L405 2686L405 2672L810 2232L1127 2232L1533 2672L1533 2686L1170 2686L969 2442Z"  horiz-adv-x="1942" vert-adv-y="2816"  />

      
      <glyph glyph-name="uni1E30" unicode="&#x1E30;" d="M178 0L611 0L611 582L824 842L1385 0L1903 0L1134 1131L1894 2048L1375 2048L638 1145L611 1145L611 2048L178 2048ZM816 2246L1117 2246L1422 2701L1028 2701Z"  horiz-adv-x="1942" vert-adv-y="2816"  />

      
      <glyph glyph-name="uni1E32" unicode="&#x1E32;" d="M178 0L611 0L611 582L824 842L1385 0L1903 0L1134 1131L1894 2048L1375 2048L638 1145L611 1145L611 2048L178 2048ZM963-574C1090-574 1194-477 1194-358C1194-240 1090-143 963-143C837-143 733-240 733-358C733-477 837-574 963-574Z"  horiz-adv-x="1942" vert-adv-y="2816"  />

      
      <glyph glyph-name="uni1E34" unicode="&#x1E34;" d="M178 0L611 0L611 582L824 842L1385 0L1903 0L1134 1131L1894 2048L1375 2048L638 1145L611 1145L611 2048L178 2048ZM1450-254L476-254L476-485L1450-485Z"  horiz-adv-x="1942" vert-adv-y="2816"  />

      
      <glyph glyph-name="uni04A0" unicode="&#x04A0;" d="M1747 0L2284 0L1448 1098L2247 2048L1708 2048L1028 1230L941 1230L941 2048L46 2048L46 1710L508 1710L508 0L941 0L941 873L1089 873Z"  horiz-adv-x="2390" vert-adv-y="2816"  />

      
      <glyph glyph-name="uni049A" unicode="&#x049A;" d="M1417 0L1581 0L1581-480L1995-480L1995 308L1719 308L1118 1098L1917 2048L1378 2048L698 1230L611 1230L611 2048L178 2048L178 0L611 0L611 873L759 873Z"  horiz-adv-x="2085" vert-adv-y="2816"  />

      
      <glyph glyph-name="uni0198" unicode="&#x0198;" d="M178 0L611 0L611 527L862 796L1464 0L1982 0L1137 1102L1620 1606C1712 1701 1783 1734 1895 1675L2034 1982C1776 2134 1521 2097 1310 1878L638 1166L611 1166L611 2048L178 2048Z"  horiz-adv-x="2053" vert-adv-y="2816"  />

      
      <glyph glyph-name="uni039A" unicode="&#x039A;" d="M178 0L611 0L611 582L824 842L1385 0L1903 0L1134 1131L1894 2048L1375 2048L638 1145L611 1145L611 2048L178 2048Z"  horiz-adv-x="1942" vert-adv-y="2816"  />

      
      <glyph glyph-name="uni4c" unicode="&#x4c;" d="M178 0L1489 0L1489 357L611 357L611 2048L178 2048Z"  horiz-adv-x="1598" vert-adv-y="2816"  />

      
      <glyph glyph-name="uni0139" unicode="&#x0139;" d="M178 0L1489 0L1489 357L611 357L611 2048L178 2048ZM238 2246L539 2246L844 2701L450 2701Z"  horiz-adv-x="1598" vert-adv-y="2816"  />

      
      <glyph glyph-name="uni013B" unicode="&#x013B;" d="M178 0L1489 0L1489 357L611 357L611 2048L178 2048ZM516-656L815-656L1034-162L640-162Z"  horiz-adv-x="1598" vert-adv-y="2816"  />

      
      <glyph glyph-name="uni013D" unicode="&#x013D;" d="M178 0L1489 0L1489 357L611 357L611 2048L178 2048ZM918 1626L1166 1626L1238 2154L918 2154Z"  horiz-adv-x="1598" vert-adv-y="2816"  />

      
      <glyph glyph-name="uni1E36" unicode="&#x1E36;" d="M178 0L1489 0L1489 357L611 357L611 2048L178 2048ZM833-576C960-576 1064-479 1064-360C1064-242 960-145 833-145C707-145 603-242 603-360C603-479 707-576 833-576Z"  horiz-adv-x="1598" vert-adv-y="2816"  />

      
      <glyph glyph-name="uni1E38" unicode="&#x1E38;" d="M178 0L1489 0L1489 357L611 357L611 2048L178 2048ZM878 2560L-96 2560L-96 2329L878 2329ZM833-576C960-576 1064-479 1064-360C1064-242 960-145 833-145C707-145 603-242 603-360C603-479 707-576 833-576Z"  horiz-adv-x="1598" vert-adv-y="2816"  />

      
      <glyph glyph-name="uni1E3A" unicode="&#x1E3A;" d="M178 0L1489 0L1489 357L611 357L611 2048L178 2048ZM1321-256L347-256L347-487L1321-487Z"  horiz-adv-x="1598" vert-adv-y="2816"  />

      
      <glyph glyph-name="uni1E3C" unicode="&#x1E3C;" d="M178 0L1489 0L1489 357L611 357L611 2048L178 2048ZM632-584L833-340L1034-584L1397-584L1397-570L991-130L674-130L269-570L269-584Z"  horiz-adv-x="1598" vert-adv-y="2816"  />

      
      <glyph glyph-name="uni0141" unicode="&#x0141;" d="M968 1323L697 1248L697 2048L264 2048L264 1127L41 1065L41 830L264 892L264 0L1575 0L1575 357L697 357L697 1011L968 1086Z"  horiz-adv-x="1649" vert-adv-y="2816"  />

      
      <glyph glyph-name="uni023D" unicode="&#x023D;" d="M178 0L1489 0L1489 357L611 357L611 954L891 954L891 1205L611 1205L611 2048L178 2048L178 1205L-107 1205L-107 954L178 954Z"  horiz-adv-x="1598" vert-adv-y="2816"  />

      
      </font>
</defs>
</svg>
